<svg xmlns="http://www.w3.org/2000/svg" viewBox="0 0 471.2 596.84"><title>Napkin-treatment</title><g style="isolation:isolate"><path d="M445,398.31" transform="translate(1.2 -1.58)" fill="#f6f5f0"/><path d="M460.92,430.33c1.59,13.22-.05,27.8-.05,41.15v98.39a21.57,21.57,0,0,1-21.33,21.81h-343c-5.34,0-14.58,1.26-21.15-.37a10.71,10.71,0,0,1-6.21-3.56c-2-2.71-3.42-6-6-8.19a9.71,9.71,0,0,0-1.07-.78C55.11,574.2,8,590.84.07,589.22V76.6l64.58-75L439.55,4a21.56,21.56,0,0,1,21.32,21.8v326.3Z" transform="translate(1.2 -1.58)" fill="#fff"/><path d="M82,573.71a9.39,9.39,0,0,1-4.93-3.05l0,0a5.4,5.4,0,0,1,2.31.68,9.92,9.92,0,0,1,1,.73A12.17,12.17,0,0,1,82,573.71Z" transform="translate(1.2 -1.58)" fill="#f6f5f0"/><g opacity="0.35"><path d="M60.55,584.35c-11-1.17-53.23,13.89-60.64,12.4l.16-11c14.38-3.59,47.81-13.86,53.3-10.36a11.58,11.58,0,0,1,1.09.79C57.08,578.37,58.48,581.64,60.55,584.35Z" transform="translate(1.2 -1.58)" fill="#2d3244"/><path d="M470,478v98.23A21.78,21.78,0,0,1,448.23,598H98.16c-5.45,0-14.88,1.26-21.59-.38A10.92,10.92,0,0,1,70.24,594c-1.57-2-2.76-4.41-4.37-6.39.34.11.69.2,1,.28,6.71,1.63,16.14.38,21.59.38H438.57a21.78,21.78,0,0,0,21.77-21.78V23.35A21.48,21.48,0,0,0,458,13.56,21.75,21.75,0,0,1,470,33V478Z" transform="translate(1.2 -1.58)" fill="#2d3244"/></g><path d="M132.38,507.25,66.91,587.92a10.89,10.89,0,0,1-6.33-3.55c-2.09-2.71-3.49-6-6.12-8.17a11.58,11.58,0,0,0-1.09-.79C78.37,561.63,105.2,535.6,132.38,507.25Z" transform="translate(1.2 -1.58)" fill="#640b18" opacity="0.35"/><path d="M61.58,15.43" transform="translate(1.2 -1.58)" fill="none" stroke="#640b18" stroke-linejoin="round" stroke-width="1.72" opacity="0.3"/><path d="M36.77,501.55" transform="translate(1.2 -1.58)" fill="none" stroke="#640b18" stroke-linejoin="round" stroke-width="1.61" opacity="0.3"/><path d="M17.27,65.51" transform="translate(1.2 -1.58)" fill="none" stroke="#640b18" stroke-linejoin="round" stroke-width="1.72" opacity="0.3"/><path d="M70.81,1.58,81.08,35.66c3.52,11.89-2,25.47-13.92,29L.07,81.28v-5L64.65,1.58Z" transform="translate(1.2 -1.58)" fill="#640b18" opacity="0.35"/><path d="M64.65,1.58l8.8,29.76A20.57,20.57,0,0,1,59.56,56.91L.07,76.6Z" transform="translate(1.2 -1.58)" fill="#f6f5f0"/><g opacity="0.35"><path d="M36.11,129.58A8.79,8.79,0,0,1,36,131.2a9.42,9.42,0,0,0-18.56,0,8.79,8.79,0,0,1-.14-1.62,9.42,9.42,0,1,1,18.84,0Z" transform="translate(1.2 -1.58)" fill="#2d3244"/><path d="M36.11,280.6a8.75,8.75,0,0,1-.14,1.63,9.42,9.42,0,0,0-18.56,0,8.75,8.75,0,0,1-.14-1.63,9.42,9.42,0,1,1,18.84,0Z" transform="translate(1.2 -1.58)" fill="#2d3244"/><path d="M36.11,431.62a8.67,8.67,0,0,1-.14,1.63,9.42,9.42,0,0,0-18.56,0,8.67,8.67,0,0,1-.14-1.63,9.42,9.42,0,0,1,18.84,0Z" transform="translate(1.2 -1.58)" fill="#2d3244"/></g><line x1="1.26" y1="81.2" x2="461.54" y2="81.2" fill="none" stroke="#640b18" stroke-linejoin="round" stroke-width="2.15" opacity="0.6"/><line x1="1.26" y1="141.9" x2="461.54" y2="141.9" fill="none" stroke="#640b18" stroke-linejoin="round" stroke-width="2.15" opacity="0.3"/><line x1="1.26" y1="166.83" x2="461.54" y2="166.83" fill="none" stroke="#640b18" stroke-linejoin="round" stroke-width="2.15" opacity="0.3"/><line x1="1.26" y1="191.76" x2="461.54" y2="191.76" fill="none" stroke="#640b18" stroke-linejoin="round" stroke-width="2.15" opacity="0.3"/><line x1="1.26" y1="216.69" x2="461.54" y2="216.69" fill="none" stroke="#640b18" stroke-linejoin="round" stroke-width="2.15" opacity="0.3"/><line x1="1.26" y1="241.62" x2="461.54" y2="241.62" fill="none" stroke="#640b18" stroke-linejoin="round" stroke-width="2.15" opacity="0.3"/><line x1="1.26" y1="266.55" x2="461.54" y2="266.55" fill="none" stroke="#640b18" stroke-linejoin="round" stroke-width="2.15" opacity="0.3"/><line x1="1.26" y1="291.48" x2="461.54" y2="291.48" fill="none" stroke="#640b18" stroke-linejoin="round" stroke-width="2.15" opacity="0.3"/><line x1="1.26" y1="316.41" x2="461.54" y2="316.41" fill="none" stroke="#640b18" stroke-linejoin="round" stroke-width="2.15" opacity="0.3"/><line x1="1.26" y1="341.34" x2="461.54" y2="341.34" fill="none" stroke="#640b18" stroke-linejoin="round" stroke-width="2.15" opacity="0.3"/><line x1="1.26" y1="366.27" x2="461.54" y2="366.27" fill="none" stroke="#640b18" stroke-linejoin="round" stroke-width="2.15" opacity="0.3"/><line x1="1.26" y1="391.2" x2="461.54" y2="391.2" fill="none" stroke="#640b18" stroke-linejoin="round" stroke-width="2.15" opacity="0.3"/><line x1="1.26" y1="416.13" x2="461.54" y2="416.13" fill="none" stroke="#640b18" stroke-linejoin="round" stroke-width="2.15" opacity="0.3"/><line x1="1.26" y1="441.06" x2="461.54" y2="441.06" fill="none" stroke="#640b18" stroke-linejoin="round" stroke-width="2.15" opacity="0.3"/><line x1="1.26" y1="465.99" x2="461.54" y2="465.99" fill="none" stroke="#640b18" stroke-linejoin="round" stroke-width="2.15" opacity="0.3"/><line x1="1.26" y1="490.92" x2="461.54" y2="490.92" fill="none" stroke="#640b18" stroke-linejoin="round" stroke-width="2.15" opacity="0.3"/><line x1="21.94" y1="506.73" x2="450.65" y2="506.73" fill="none" stroke="#640b18" stroke-linejoin="round" stroke-width="2" opacity="0.3"/><line x1="1.26" y1="540.78" x2="461.54" y2="540.78" fill="none" stroke="#640b18" stroke-linejoin="round" stroke-width="2.15" opacity="0.3"/><polyline points="1.26 565.71 67.06 565.71 82.63 568.44 461.54 571.38" fill="none" stroke="#640b18" stroke-linejoin="round" stroke-width="2.15" opacity="0.3"/><rect x="38.79" y="282.44" width="100.55" height="70.65" rx="32.9" fill="#640b18" opacity="0.1"/><rect x="181.13" y="162.06" width="98.8" height="69.42" rx="32.33" fill="#640b18" opacity="0.1"/><rect x="67.4" y="186.71" width="84.09" height="59.09" rx="27.52" fill="#640b18" opacity="0.1"/><rect x="315.55" y="225.87" width="94.74" height="66.57" rx="31" fill="#640b18" opacity="0.1" style="mix-blend-mode:multiply"/><rect x="280.11" y="332.21" width="87.72" height="61.64" rx="28.7" fill="#640b18" opacity="0.1"/><rect x="174.68" y="329.86" width="90.91" height="63.88" rx="29.75" fill="#640b18" opacity="0.1"/><rect x="306.33" y="152.37" width="107.05" height="7.72" rx="3.59" fill="#640b18" opacity="0.2"/><rect x="45.43" y="152.34" width="107.05" height="7.72" rx="3.59" fill="#640b18" opacity="0.2"/><rect x="45.43" y="168.27" width="38.6" height="7.72" rx="3.59" fill="#640b18" opacity="0.2"/><rect x="49.84" y="391.92" width="38.6" height="7.72" rx="3.59" fill="#640b18" opacity="0.2"/><rect x="97.87" y="168.27" width="38.6" height="7.72" rx="3.59" fill="#640b18" opacity="0.2"/><rect x="300.67" y="413.68" width="38.6" height="7.72" rx="3.59" fill="#640b18" opacity="0.2"/><rect x="349.56" y="413.99" width="38.6" height="7.72" rx="3.59" fill="#640b18" opacity="0.2"/><rect x="306.33" y="166.83" width="67.94" height="7.72" rx="3.59" fill="#640b18" opacity="0.2"/><rect x="306.33" y="181.29" width="87.49" height="7.72" rx="3.59" fill="#640b18" opacity="0.2"/><rect x="181.19" y="407.34" width="67.94" height="7.72" rx="3.59" fill="#640b18" opacity="0.2"/><rect x="170.8" y="428.09" width="87.49" height="7.72" rx="3.59" fill="#640b18" opacity="0.2"/><rect x="50.03" y="378.79" width="67.94" height="7.72" rx="3.59" fill="#640b18" opacity="0.2"/><rect x="50.03" y="364.78" width="87.49" height="7.72" rx="3.59" fill="#640b18" opacity="0.2"/><rect x="174.68" y="270.48" width="119.14" height="37.44" rx="6.57" fill="#640b18" opacity="0.1"/><path d="M85.07,497.25a31.07,31.07,0,0,0,4-28.56,58,58,0,0,0,1.08,38.84l2.82-9.22a21.93,21.93,0,0,0,2.59,5.85,7.49,7.49,0,0,0,5.24,3.38,4.59,4.59,0,0,0,4.89-3.26" transform="translate(1.2 -1.58)" fill="none" stroke="#640b18" stroke-linejoin="round" stroke-width="2.04"/><path d="M104.52,501.42a4.75,4.75,0,0,0,3.89-.22,3.17,3.17,0,0,0,1.58-3.38,2.39,2.39,0,0,0-3.1-1.66c-1.52.67-1.65,2.75-1.46,4.4a10.65,10.65,0,0,0,1.42,4.7,4.27,4.27,0,0,0,4.19,2c1.61-.33,2.79-2.34,1.94-3.76" transform="translate(1.2 -1.58)" fill="none" stroke="#640b18" stroke-linejoin="round" stroke-width="2.04"/><path d="M116.93,501.4a21.73,21.73,0,0,0-1-20.17,42.54,42.54,0,0,0,1,20.81c.59,1.91,1.65,4.06,3.63,4.34a3.79,3.79,0,0,0,3-1.11,11.61,11.61,0,0,0,2-2.69" transform="translate(1.2 -1.58)" fill="none" stroke="#640b18" stroke-linejoin="round" stroke-width="2.04"/><path d="M124.88,498.06l4.45,18,.67-.94" transform="translate(1.2 -1.58)" fill="none" stroke="#640b18" stroke-linejoin="round" stroke-width="2.04"/><path d="M124.06,502.65a4.34,4.34,0,0,1,2.06-4.8,4.58,4.58,0,0,1,5.48,1.09,5.15,5.15,0,0,1,.54,5.65,5.9,5.9,0,0,1-4.92,3" transform="translate(1.2 -1.58)" fill="none" stroke="#640b18" stroke-linejoin="round" stroke-width="2.04"/><path d="M159,500a30.88,30.88,0,0,0-.53-27.55A44.77,44.77,0,0,0,162,504.73a4.69,4.69,0,0,0,2.55,2.62,2.32,2.32,0,0,0,2.6-2" transform="translate(1.2 -1.58)" fill="none" stroke="#640b18" stroke-linejoin="round" stroke-width="2.04"/><path d="M190.78,498.27l1.86,8.79-.11-6.05a2.82,2.82,0,0,1,.39-1.83,1.8,1.8,0,0,1,2.24-.35,4.07,4.07,0,0,1,1.51,1.81,18.91,18.91,0,0,1,2.05,7.37" transform="translate(1.2 -1.58)" fill="none" stroke="#640b18" stroke-linejoin="round" stroke-width="2.04"/><path d="M205.19,498.66c-.23-.93-1.58-1.15-2.36-.6a4,4,0,0,0-1.31,2.48,8.14,8.14,0,0,0,0,4.35,3.57,3.57,0,0,0,3.24,2.54c1.46-.05,2.75-1.75,2.08-3.06" transform="translate(1.2 -1.58)" fill="none" stroke="#640b18" stroke-linejoin="round" stroke-width="2.04"/><path d="M207,498.3a22.94,22.94,0,0,0,2.81-24.12A58,58,0,0,0,211.89,508a11.38,11.38,0,0,0,2.93-9.51,6.53,6.53,0,0,0,8.62,7.8" transform="translate(1.2 -1.58)" fill="none" stroke="#640b18" stroke-linejoin="round" stroke-width="2.04"/><path d="M174.72,498.74A2.4,2.4,0,0,0,172,497.5a3.66,3.66,0,0,0-2.35,2.07,8.42,8.42,0,0,0-.66,3.15,6.24,6.24,0,0,0,.7,3.72,2.56,2.56,0,0,0,3.31,1c1.16-.71,1.24-2.33,1.18-3.68l-.16-3.91c.15,1,.16,2,.31,3a5.69,5.69,0,0,0,1.08,2.76,2.9,2.9,0,0,0,2.64,1.11,2,2,0,0,0,1.61-2.16" transform="translate(1.2 -1.58)" fill="none" stroke="#640b18" stroke-linejoin="round" stroke-width="2.04"/><path d="M326.54,498.74a2.4,2.4,0,0,0-2.71-1.24,3.66,3.66,0,0,0-2.35,2.07,8.22,8.22,0,0,0-.65,3.15,6.16,6.16,0,0,0,.69,3.72,2.57,2.57,0,0,0,3.32,1c1.15-.71,1.23-2.33,1.17-3.68l-.16-3.91c.15,1,.17,2,.32,3a5.59,5.59,0,0,0,1.08,2.76,2.88,2.88,0,0,0,2.63,1.11,2,2,0,0,0,1.61-2.16" transform="translate(1.2 -1.58)" fill="none" stroke="#640b18" stroke-linejoin="round" stroke-width="2.04"/><path d="M181.54,498.52a15.08,15.08,0,0,0,.49,6.54,4.72,4.72,0,0,0,.81,1.69,2,2,0,0,0,1.63.79c1.08-.06,1.76-1.19,2.1-2.22a12,12,0,0,0,.43-5.95,12.33,12.33,0,0,0-.22,5.76c.17.84.66,1.85,1.52,1.8a1.34,1.34,0,0,0,1-.71,4.15,4.15,0,0,0,.38-1.24" transform="translate(1.2 -1.58)" fill="none" stroke="#640b18" stroke-linejoin="round" stroke-width="2.04"/><path d="M237.38,494.7l5.92-17.36,3.81,31,.22-1.05" transform="translate(1.2 -1.58)" fill="none" stroke="#640b18" stroke-linejoin="round" stroke-width="2.04"/><path d="M258.74,506.66,255,479.32l13,15.46a42.63,42.63,0,0,0,12-15.22l3.27,27.94" transform="translate(1.2 -1.58)" fill="none" stroke="#640b18" stroke-linejoin="round" stroke-width="2.04"/><path d="M304.79,497.8c-.55-.89-2.13-.5-2.5.48a2.71,2.71,0,0,0,.94,2.83,18.93,18.93,0,0,0,2.68,1.69,3.8,3.8,0,0,1,1.91,2.4,2.33,2.33,0,0,1-4.16,1.77" transform="translate(1.2 -1.58)" fill="none" stroke="#640b18" stroke-linejoin="round" stroke-width="2.04"/><path d="M307.48,477.84l3.92,26.23a7.12,7.12,0,0,0,1.12,3.41,2.89,2.89,0,0,0,3.44.86,3.46,3.46,0,0,0,1.81-3.33" transform="translate(1.2 -1.58)" fill="none" stroke="#640b18" stroke-linejoin="round" stroke-width="2.04"/><path d="M304.78,492.56l9.64-3.35" transform="translate(1.2 -1.58)" fill="none" stroke="#640b18" stroke-linejoin="round" stroke-width="2.04"/><path d="M332.8,497.39l3.07,9.76-.49-3.69a9.2,9.2,0,0,1-.09-2.77,3.53,3.53,0,0,1,1.62-2.36c.63-.12.8.21.8.42" transform="translate(1.2 -1.58)" fill="none" stroke="#640b18" stroke-linejoin="round" stroke-width="2.04"/><path d="M340.27,477.1l3,26a5.51,5.51,0,0,0,1.35,3.63c1,.89,3,.6,3.15-.72" transform="translate(1.2 -1.58)" fill="none" stroke="#640b18" stroke-linejoin="round" stroke-width="2.04"/><path d="M338.37,487.47a20,20,0,0,1,7.27-1.54" transform="translate(1.2 -1.58)" fill="none" stroke="#640b18" stroke-linejoin="round" stroke-width="2.04"/><path d="M351.2,498.3,352,504a5.51,5.51,0,0,0,.49,1.84,1.93,1.93,0,0,0,1.46,1.11c1,.09,1.76-.8,2.21-1.68a9,9,0,0,0,.66-6.27,9.16,9.16,0,0,0,2.37,8.24l1.3-1.2" transform="translate(1.2 -1.58)" fill="none" stroke="#640b18" stroke-linejoin="round" stroke-width="2.04"/><path d="M362.42,498.64a151.09,151.09,0,0,1,3.86,19l0-.86" transform="translate(1.2 -1.58)" fill="none" stroke="#640b18" stroke-linejoin="round" stroke-width="2.04"/><path d="M361.88,503.8a5.5,5.5,0,0,1,1.33-3.22,2.92,2.92,0,0,1,3.23-.76,2.77,2.77,0,0,1,1.47,2.4,4.38,4.38,0,0,1-1,2.74,2.81,2.81,0,0,1-1.28,1,1.37,1.37,0,0,1-1.52-.39" transform="translate(1.2 -1.58)" fill="none" stroke="#640b18" stroke-linejoin="round" stroke-width="2.04"/><path d="M374.4,498.19a4.17,4.17,0,0,0-2.19.75,1.42,1.42,0,0,0-.16,2.06,3.28,3.28,0,0,0,1.37.42,2.64,2.64,0,0,1-1.15,5.16l.28-1" transform="translate(1.2 -1.58)" fill="none" stroke="#640b18" stroke-linejoin="round" stroke-width="2.04"/><g opacity="0.4" style="mix-blend-mode:multiply"><path d="M124.44,45.22,110.93,48.5l-1.58-9.19a48.08,48.08,0,0,1,15.24-2.07l.14-4.4a51.85,51.85,0,0,0-16.13,2.1l0-.23-4.35.75,6.34,36.74,4.34-.75-3.21-18.6,13.8-3.34Z" transform="translate(1.2 -1.58)" fill="#640b18"/><rect x="136.31" y="33.46" width="4.41" height="38.66" transform="translate(-5.96 23.75) rotate(-10.18)" fill="#640b18"/><path d="M175.64,38l-.56-2.79a2.21,2.21,0,0,0-4.33.85,124.35,124.35,0,0,1,2,30.2,47.94,47.94,0,0,1-16.49-12.2L153.6,34.45l-4.37.59,5,37.16,4.37-.59-1.38-10.25A52.08,52.08,0,0,0,174,71.55a2.06,2.06,0,0,0,.77.14,2.18,2.18,0,0,0,1.18-.34,2.22,2.22,0,0,0,1-1.68,128.75,128.75,0,0,0-1.35-31.62Z" transform="translate(1.2 -1.58)" fill="#640b18"/><path d="M206.39,55.62l-1.13-4.26-1.88.5,0-.14c-2.1-5.93-4.27-12.07-6.42-19a2.21,2.21,0,0,0-4.24.1c-1.64,6.4-3.59,12.78-5.48,19l-1.46,4.8-2.51.67,1.09,4.08c-.93,3.17-1.83,6.38-2.66,9.6L185.92,72c1-4,2.16-7.91,3.33-11.82l11.33-3c1.65,4.71,3.34,9.63,5,15l4.21-1.3c-1.65-5.35-3.32-10.22-5-14.87Zm-15-2.57c1.19-3.91,2.42-7.9,3.57-11.95,1.39,4.17,2.77,8.08,4.13,11.9l-8.37,2.23Z" transform="translate(1.2 -1.58)" fill="#640b18"/><path d="M353.89,72.2l4.21-1.3c-1.6-5.15-3.22-10.1-4.81-14.91l1.4-.37-1.14-4.26-1.66.44c-.11-.31-.21-.63-.32-.94-2.13-6.39-4.34-13-6.49-19.95a2.14,2.14,0,0,0-2.16-1.55A2.19,2.19,0,0,0,340.84,31c-1.65,6.42-3.57,13.28-5.44,19.92-.53,1.88-1.06,3.78-1.59,5.68l-2.29.62,1,3.9c-.91,3.31-1.79,6.59-2.61,9.78L334.22,72c1-3.82,2.06-7.79,3.16-11.78L349,57.13C350.64,62,352.28,67,353.89,72.2ZM338.76,55.31c.29-1.07.59-2.13.89-3.18,1.17-4.19,2.37-8.46,3.51-12.67,1.42,4.39,2.84,8.64,4.23,12.79.08.23.16.46.23.69Z" transform="translate(1.2 -1.58)" fill="#640b18"/><path d="M222.2,67.69l-5.6-36.91-4.35.67,5.9,38.88a2.19,2.19,0,0,0,2.17,1.87h.12l15.26-.79L235.47,67Z" transform="translate(1.2 -1.58)" fill="#640b18"/><rect x="263.27" y="28.26" width="4.41" height="43.86" transform="translate(-3.33 38.74) rotate(-8.61)" fill="#640b18"/><path d="M285.75,31.48h-.07a12.46,12.46,0,0,0-6.45,1.86l-.58-4.06-4.36.63,1,7.25a10.67,10.67,0,0,0-1.19,2.59l1.63.49,4.6,32,4.36-.62,0-.24a5.06,5.06,0,0,0,.68.09h.16A8.22,8.22,0,0,0,290,69.8,25.16,25.16,0,0,0,301,51.58a20.22,20.22,0,0,0-3-13.31A15,15,0,0,0,285.75,31.48Zm10.82,19.66a20.68,20.68,0,0,1-9,15,4.35,4.35,0,0,1-2.08.89.65.65,0,0,1-.41-.18.31.31,0,0,1,.05.19l-1.06,0L280,38.38a8.16,8.16,0,0,1,5.75-2.5,10.61,10.61,0,0,1,8.55,4.85A15.85,15.85,0,0,1,296.57,51.14Z" transform="translate(1.2 -1.58)" fill="#640b18"/><path d="M326.37,48.15l-16.68,2.31-.64-15.24,13.76-1.47-.46-4.38-13.49,1.44v-.16l-4.4.18,1.1,26.26c.15,3.43.42,9.81,4.92,13.13a10.77,10.77,0,0,0,6.48,2,14,14,0,0,0,2.39-.21A30.06,30.06,0,0,0,327,69.28l-1.85-4a27.17,27.17,0,0,1-6.51,2.37,7.41,7.41,0,0,1-5.53-1c-2.58-1.91-3-6.05-3.12-9.77l-.09-2L327,52.52Z" transform="translate(1.2 -1.58)" fill="#640b18"/></g><path d="M105.58,34.54l6.33,36.74" transform="translate(1.2 -1.58)" fill="none" stroke="#640b18" stroke-linejoin="round" stroke-width="4.41"/><path d="M105,37.62a49.55,49.55,0,0,1,18.83-3.13" transform="translate(1.2 -1.58)" fill="none" stroke="#640b18" stroke-linejoin="round" stroke-width="4.41"/><path d="M108.05,50.72l16.1-3.9" transform="translate(1.2 -1.58)" fill="none" stroke="#640b18" stroke-linejoin="round" stroke-width="4.41"/><path d="M134.29,33.22l6.84,38" transform="translate(1.2 -1.58)" fill="none" stroke="#640b18" stroke-linejoin="round" stroke-width="4.41"/><path d="M150.61,34.2l5,37.16" transform="translate(1.2 -1.58)" fill="none" stroke="#640b18" stroke-linejoin="round" stroke-width="4.41"/><path d="M153.65,54.84a50.14,50.14,0,0,0,20.27,14.1,126.1,126.1,0,0,0-1.81-33.81l.56,2.79" transform="translate(1.2 -1.58)" fill="none" stroke="#640b18" stroke-linejoin="round" stroke-width="4.41"/><path d="M183,70.92c3.31-12.9,7.72-25.21,11-38.11,4.32,14,8.57,24.22,12.89,38.19" transform="translate(1.2 -1.58)" fill="none" stroke="#640b18" stroke-linejoin="round" stroke-width="4.41"/><path d="M183,58.82l22-5.88" transform="translate(1.2 -1.58)" fill="none" stroke="#640b18" stroke-linejoin="round" stroke-width="4.41"/><path d="M331.28,70.92c3.3-12.9,7.58-27,10.89-39.91,4.32,14,8.7,26,13,40" transform="translate(1.2 -1.58)" fill="none" stroke="#640b18" stroke-linejoin="round" stroke-width="4.41"/><path d="M331.28,58.82l22-5.88" transform="translate(1.2 -1.58)" fill="none" stroke="#640b18" stroke-linejoin="round" stroke-width="4.41"/><path d="M213.62,30.57l5.9,38.88,15.26-.79" transform="translate(1.2 -1.58)" fill="none" stroke="#640b18" stroke-linejoin="round" stroke-width="4.41"/><path d="M261.38,28l5.43,35.83L268,71.32" transform="translate(1.2 -1.58)" fill="none" stroke="#640b18" stroke-linejoin="round" stroke-width="4.41"/><path d="M275.66,29.05l6.08,42.29" transform="translate(1.2 -1.58)" fill="none" stroke="#640b18" stroke-linejoin="round" stroke-width="4.41"/><path d="M275.45,39.84a10,10,0,0,1,9.44-6.71A12.88,12.88,0,0,1,295.28,39,18.11,18.11,0,0,1,298,50.81a23,23,0,0,1-10,16.61,6,6,0,0,1-3.37,1.25,2.46,2.46,0,0,1-2.49-2.16" transform="translate(1.2 -1.58)" fill="none" stroke="#640b18" stroke-linejoin="round" stroke-width="4.41"/><path d="M305.85,30.19,307,56.45c.18,4.19.65,9,4,11.45a9.5,9.5,0,0,0,7.2,1.38,28.6,28.6,0,0,0,7.07-2.54" transform="translate(1.2 -1.58)" fill="none" stroke="#640b18" stroke-linejoin="round" stroke-width="4.41"/><path d="M304.88,32.81,321.77,31" transform="translate(1.2 -1.58)" fill="none" stroke="#640b18" stroke-linejoin="round" stroke-width="4.41"/><path d="M305.29,52.63l20.58-2.84" transform="translate(1.2 -1.58)" fill="none" stroke="#640b18" stroke-linejoin="round" stroke-width="4.41"/><path d="M186.11,290.5a2,2,0,0,0-3.94.74,3.19,3.19,0,0,0,1.56,2.36c1.4,1,3.8,1.7,3.72,3.8-.09,2.36-3.63,2.3-4.51.5" transform="translate(1.2 -1.58)" fill="none" stroke="#640b18" stroke-linejoin="round" stroke-width="1.72"/><path d="M204.78,292.28c1.22-.94.74-3.14-.65-3.79a3.49,3.49,0,0,0-4.07,1.28,6.83,6.83,0,0,0-1.1,4.38c.06,2,1,4.43,3,4.77a3.66,3.66,0,0,0,3.7-2.5,10.82,10.82,0,0,0,.32-4.78A4.18,4.18,0,0,0,213,296" transform="translate(1.2 -1.58)" fill="none" stroke="#640b18" stroke-linejoin="round" stroke-width="1.72"/><path d="M212.84,289l-.27-.77c1.14,4,2.43,6.71,3.57,10.72l1.13-10,3.93,1.18" transform="translate(1.2 -1.58)" fill="none" stroke="#640b18" stroke-linejoin="round" stroke-width="1.72"/><path d="M229,288.51a17.09,17.09,0,0,0,.05,6.61c.6,2.12,2.36,3.95,4.11,3.49,1.52-.4,2.45-2.39,2.53-4.33a16.56,16.56,0,0,0-1.08-5.64" transform="translate(1.2 -1.58)" fill="none" stroke="#640b18" stroke-linejoin="round" stroke-width="1.72"/><path d="M238.91,286.5l5,30.36" transform="translate(1.2 -1.58)" fill="none" stroke="#640b18" stroke-linejoin="round" stroke-width="1.72"/><path d="M239.26,296.68a4.52,4.52,0,1,1,2.5,1.52c-.32-.25.37-.74.51-.37" transform="translate(1.2 -1.58)" fill="none" stroke="#640b18" stroke-linejoin="round" stroke-width="1.72"/><path d="M252.61,287.44a3.38,3.38,0,0,0-3.21,3.94,12.07,12.07,0,0,1,3.49.62,4,4,0,0,1,2.46,2.41,3,3,0,0,1-4.95,2.94" transform="translate(1.2 -1.58)" fill="none" stroke="#640b18" stroke-linejoin="round" stroke-width="1.72"/><path d="M186.91,274.77l4.15,19.52c.33,1.52.81,3.25,2.22,3.92a2.68,2.68,0,0,0,3.61-2.12" transform="translate(1.2 -1.58)" fill="none" stroke="#640b18" stroke-linejoin="round" stroke-width="1.72"/><path d="M185.76,285l5-1.11" transform="translate(1.2 -1.58)" fill="none" stroke="#640b18" stroke-linejoin="round" stroke-width="1.72"/><path d="M218,274.77l4.15,19.52c.33,1.52.81,3.25,2.22,3.92a2.67,2.67,0,0,0,3.61-2.12" transform="translate(1.2 -1.58)" fill="none" stroke="#640b18" stroke-linejoin="round" stroke-width="1.72"/><path d="M216.89,285l5-1.11" transform="translate(1.2 -1.58)" fill="none" stroke="#640b18" stroke-linejoin="round" stroke-width="1.72"/><path d="M258.3,298.72l1.19-1.46" transform="translate(1.2 -1.58)" fill="none" stroke="#640b18" stroke-linejoin="round" stroke-width="1.72"/><path d="M265.23,290.82a3,3,0,0,0-.31-1.48,1,1,0,0,0-1.3-.43c-.4.25-.45.8-.46,1.27a32.94,32.94,0,0,0,.36,5.06,5.65,5.65,0,0,0,.44,1.67,2.12,2.12,0,0,0,1.22,1.15,2.18,2.18,0,0,0,2-.53,6.5,6.5,0,0,0,1.32-1.75" transform="translate(1.2 -1.58)" fill="none" stroke="#640b18" stroke-linejoin="round" stroke-width="1.72"/><path d="M270.38,296a3.93,3.93,0,0,0,1.48,1.69,2,2,0,0,0,2.14-.1,3.09,3.09,0,0,0,.72-2.58,11.06,11.06,0,0,0-.69-4.28c-.67-1.49-2.82-3.45-3.84-1.45A7.8,7.8,0,0,0,270.38,296Z" transform="translate(1.2 -1.58)" fill="none" stroke="#640b18" stroke-linejoin="round" stroke-width="1.72"/><path d="M276.25,288.58l2.47,9.41-1.14-6.6a1.28,1.28,0,0,1,.19-1.18c.4-.35,1.05-.06,1.35.37a4.14,4.14,0,0,1,.56,1.76,3.61,3.61,0,0,0,.62,1.73,1.29,1.29,0,0,0,1.64.38,1.89,1.89,0,0,0,.56-1.64l.06-3.48a12.65,12.65,0,0,0,2.57,8.51" transform="translate(1.2 -1.58)" fill="none" stroke="#640b18" stroke-linejoin="round" stroke-width="1.72"/><path d="M66.38,338.85a3.17,3.17,0,0,0-1.46.42,1.1,1.1,0,0,0-.45,1.33c.36.67,1.35.5,2.1.64a2.07,2.07,0,1,1-2.08,3.24" transform="translate(1.2 -1.58)" fill="none" stroke="#640b18" stroke-linejoin="round" stroke-width="1.79"/><path d="M69.78,329l1.79,13.75a5.21,5.21,0,0,0,.47,1.83,1.81,1.81,0,0,0,1.49,1c1.13,0,1.74-1.3,2-2.39" transform="translate(1.2 -1.58)" fill="none" stroke="#640b18" stroke-linejoin="round" stroke-width="1.79"/><path d="M68,336.83l5.22-1" transform="translate(1.2 -1.58)" fill="none" stroke="#640b18" stroke-linejoin="round" stroke-width="1.79"/><path d="M79.24,340.5a.94.94,0,0,0-1-1,1.53,1.53,0,0,0-1.2,1,7,7,0,0,0,0,3.64,1.6,1.6,0,0,0,1.6,1c.92-.16,1.28-1.31,1.23-2.24a5.92,5.92,0,0,1,0-2.78,8.44,8.44,0,0,1,.08,2.41,2.81,2.81,0,0,0,.75,2.21c.61.53,1.78.37,2-.41" transform="translate(1.2 -1.58)" fill="none" stroke="#640b18" stroke-linejoin="round" stroke-width="1.79"/><path d="M88,338.15a1.23,1.23,0,0,0-1.66-.48,2,2,0,0,0-1,1.58,5.94,5.94,0,0,0,.18,1.92l2.06,10.07-2-1.34" transform="translate(1.2 -1.58)" fill="none" stroke="#640b18" stroke-linejoin="round" stroke-width="1.79"/><path d="M83.5,343.94a8.94,8.94,0,0,0,5.09-1.64" transform="translate(1.2 -1.58)" fill="none" stroke="#640b18" stroke-linejoin="round" stroke-width="1.79"/><path d="M94,338.25a1.13,1.13,0,0,0-1.48-.92,1.84,1.84,0,0,0-1.11,1.58,5.28,5.28,0,0,0,.29,2l2.12,7.69a2.7,2.7,0,0,1,.14,1,.91.91,0,0,1-.61.79c-.81.19-1.7-.69-2.16-1.06" transform="translate(1.2 -1.58)" fill="none" stroke="#640b18" stroke-linejoin="round" stroke-width="1.79"/><path d="M89.93,342.75a7.7,7.7,0,0,0,5.23-1.64" transform="translate(1.2 -1.58)" fill="none" stroke="#640b18" stroke-linejoin="round" stroke-width="1.79"/><path d="M100.38,337.74a2.05,2.05,0,0,1-.37-2.43,2.2,2.2,0,0,1,.92-.67c1.1-.46,3.53-.39,3.68,1.24a1.86,1.86,0,0,1-.43,1.18,7,7,0,0,0-1.36,2.75,6.34,6.34,0,0,0,.33,3.2" transform="translate(1.2 -1.58)" fill="none" stroke="#640b18" stroke-linejoin="round" stroke-width="1.79"/><path d="M103.42,346.79l1.36-1.68" transform="translate(1.2 -1.58)" fill="none" stroke="#640b18" stroke-linejoin="round" stroke-width="1.79"/><path d="M67.71,322.13a1.68,1.68,0,0,0-1.65-1.22A2.25,2.25,0,0,0,64.25,322a3.3,3.3,0,0,0-.38,2.14,2.1,2.1,0,0,0,1.3,1.85,1.85,1.85,0,0,0,2.07-1.37,5.43,5.43,0,0,0-.09-2.71,6.28,6.28,0,0,0,.16,2.37A2.11,2.11,0,0,0,69,325.81c.79.08,1.63-.67,1.43-1.44" transform="translate(1.2 -1.58)" fill="none" stroke="#640b18" stroke-linejoin="round" stroke-width="1.79"/><path d="M73.19,321.45a1,1,0,1,0-1.09,1.72c.79.43,1.83-.3,2.66.06a1.39,1.39,0,0,1,.35,2.06,2.33,2.33,0,0,1-2.2.66l.71.12" transform="translate(1.2 -1.58)" fill="none" stroke="#640b18" stroke-linejoin="round" stroke-width="1.79"/><path d="M79.15,321.75a1.19,1.19,0,1,0-1.62,1.72c.49.34,1.19.28,1.65.65a1.1,1.1,0,1,1-1.44,1.65l.14.16" transform="translate(1.2 -1.58)" fill="none" stroke="#640b18" stroke-linejoin="round" stroke-width="1.79"/><path d="M120.51,321.53c-.59-.21-1.09-.35-1.56.14a1.26,1.26,0,0,0,.19,1.8c.49.34,1.19.28,1.65.65a1.1,1.1,0,1,1-1.44,1.65" transform="translate(1.2 -1.58)" fill="none" stroke="#640b18" stroke-linejoin="round" stroke-width="1.79"/><path d="M82,320.69a4.94,4.94,0,0,1,.49,2,7.43,7.43,0,0,0,.36,2A2.12,2.12,0,0,0,84.26,326a1.27,1.27,0,0,0,1.54-.94" transform="translate(1.2 -1.58)" fill="none" stroke="#640b18" stroke-linejoin="round" stroke-width="1.79"/><path d="M90.4,321a3.09,3.09,0,0,0-1.23.61,1.07,1.07,0,0,0-.28,1.25c.32.58,1.19.52,1.76.87a1.29,1.29,0,1,1-1.87,1.58" transform="translate(1.2 -1.58)" fill="none" stroke="#640b18" stroke-linejoin="round" stroke-width="1.79"/><path d="M91.5,307.68l2.28,16a3.46,3.46,0,0,0,.67,1.9,1.19,1.19,0,0,0,1.78.07" transform="translate(1.2 -1.58)" fill="none" stroke="#640b18" stroke-linejoin="round" stroke-width="1.79"/><path d="M90.79,318.24l6.39-2.13" transform="translate(1.2 -1.58)" fill="none" stroke="#640b18" stroke-linejoin="round" stroke-width="1.79"/><path d="M100.08,321.33a1.31,1.31,0,0,0-1.51.21,2.82,2.82,0,0,0-.78,1.4,3.71,3.71,0,0,0-.16,1.65,1.83,1.83,0,0,0,.91,1.33A1.89,1.89,0,0,0,101,324.7a4,4,0,0,0-.41-3,6.62,6.62,0,0,1,.53,2.4c.15.81.74,1.7,1.56,1.61.65-.07,1.07-.72,1.36-1.3" transform="translate(1.2 -1.58)" fill="none" stroke="#640b18" stroke-linejoin="round" stroke-width="1.79"/><path d="M105.43,321.22l.83,4.6.08-3.38a1.58,1.58,0,0,1,.37-1.21,1.09,1.09,0,0,1,1.4.14,3.08,3.08,0,0,1,.73,1.34l.84,2.39a1.43,1.43,0,0,0,.62.91c.34.17.87-.13.74-.48" transform="translate(1.2 -1.58)" fill="none" stroke="#640b18" stroke-linejoin="round" stroke-width="1.79"/><path d="M110.41,306.77l3.24,17.44a2.38,2.38,0,0,0,.84,1.68,1.56,1.56,0,0,0,1.71-.21,4.55,4.55,0,0,0,1.12-1.44" transform="translate(1.2 -1.58)" fill="none" stroke="#640b18" stroke-linejoin="round" stroke-width="1.79"/><path d="M108.62,315.56a11.67,11.67,0,0,0,5.82-1.4" transform="translate(1.2 -1.58)" fill="none" stroke="#640b18" stroke-linejoin="round" stroke-width="1.79"/><path d="M80.84,318.23l1.1-1.35" transform="translate(1.2 -1.58)" fill="none" stroke="#640b18" stroke-linejoin="round" stroke-width="1.79"/><path d="M60.56,297.7a12.66,12.66,0,0,0,3.61,6.1l.31-4.84c0-.51.06-1,.12-1.52" transform="translate(1.2 -1.58)" fill="none" stroke="#640b18" stroke-linejoin="round" stroke-width="1.79"/><path d="M66.73,298.42a5.05,5.05,0,0,1,.51,2.63,3.13,3.13,0,0,0,.93,2.46,1.78,1.78,0,0,0,2.63-.83" transform="translate(1.2 -1.58)" fill="none" stroke="#640b18" stroke-linejoin="round" stroke-width="1.79"/><path d="M71.87,297.44l1.58,6.36a8.12,8.12,0,0,0,0-2.91,4.35,4.35,0,0,1,.51-2.83,1.77,1.77,0,0,1,2.53-.49" transform="translate(1.2 -1.58)" fill="none" stroke="#640b18" stroke-linejoin="round" stroke-width="1.79"/><path d="M77.42,286.16l.53,5.39.87,8.63a6.25,6.25,0,0,0,.56,2.39,2.15,2.15,0,0,0,2,1.23A1.32,1.32,0,0,0,82.45,302" transform="translate(1.2 -1.58)" fill="none" stroke="#640b18" stroke-linecap="round" stroke-linejoin="round" stroke-width="1.79"/><path d="M74.94,294l7.92-1.38" transform="translate(1.2 -1.58)" fill="none" stroke="#640b18" stroke-linejoin="round" stroke-width="1.79"/><path d="M85,299.24l0-.64a6.43,6.43,0,0,0,.63,4,2.29,2.29,0,0,0,.94,1.05,1.71,1.71,0,0,0,2.08-.71,2.77,2.77,0,0,0,.17-2.32,8.28,8.28,0,0,0-1.17-2.09l.45.54" transform="translate(1.2 -1.58)" fill="none" stroke="#640b18" stroke-linejoin="round" stroke-width="1.79"/><path d="M95.05,298.91a1.09,1.09,0,0,0-1.2-1,1.76,1.76,0,0,0-1.33,1,5.14,5.14,0,0,0-.43,1.68c-.14,1.05-.19,2.33.68,2.93s2.35-.08,2.78-1.16a5.84,5.84,0,0,0-.06-3.41,7.92,7.92,0,0,0,.33,2.7,2.71,2.71,0,0,0,1.87,1.83,1.68,1.68,0,0,0,2-1.32" transform="translate(1.2 -1.58)" fill="none" stroke="#640b18" stroke-linejoin="round" stroke-width="1.79"/><path d="M102,300a17.57,17.57,0,0,0,1-12.8c-1.71,3.56-1.64,7.68-1.53,11.62a8.68,8.68,0,0,0,.45,3.09,3,3,0,0,0,2.29,1.94,1.82,1.82,0,0,0,2-1.85" transform="translate(1.2 -1.58)" fill="none" stroke="#640b18" stroke-linejoin="round" stroke-width="1.79"/><path d="M66.18,296.15l1.1-1.35" transform="translate(1.2 -1.58)" fill="none" stroke="#640b18" stroke-linejoin="round" stroke-width="1.79"/><path d="M201.86,354.73a30,30,0,0,0-.09-19.68,42.07,42.07,0,0,0,.68,17.34c.42,1.68,1.08,3.5,2.63,4.27a3.37,3.37,0,0,0,4.52-1.94" transform="translate(1.2 -1.58)" fill="none" stroke="#640b18" stroke-linejoin="round" stroke-width="1.72"/><path d="M214.39,352a1.64,1.64,0,0,0-.2-1.83,1.66,1.66,0,0,0-1.79-.45c-1.21.46-1.41,2.06-1.42,3.36a6,6,0,0,0,.34,2.43,2,2,0,0,0,1.94,1.27c1.17-.15,1.68-1.58,1.67-2.75s-.29-2.44.26-3.48a6.39,6.39,0,0,0-.32,3.11,2.2,2.2,0,0,0,2.24,1.81,2.45,2.45,0,0,0,1.7-2.52c0-1.1-.35-2.18-.35-3.28a7.19,7.19,0,0,0-.11,4.13c.5,1.31,2.15,2.27,3.34,1.53a2.43,2.43,0,0,0,.94-2.47,6.62,6.62,0,0,0-1.18-2.52l0,.9" transform="translate(1.2 -1.58)" fill="none" stroke="#640b18" stroke-linejoin="round" stroke-width="1.72"/><path d="M224.28,350.21l1.62,6.09a9,9,0,0,1-.75-2.68,3.08,3.08,0,0,1,.89-2.54,1.9,1.9,0,0,1,2.53,0c.68.73.49,1.89.55,2.89a2.39,2.39,0,0,0,1.14,2.07c.74.36,1.86-.22,1.72-1" transform="translate(1.2 -1.58)" fill="none" stroke="#640b18" stroke-linejoin="round" stroke-width="1.72"/><path d="M236.51,351.05c.24-.69-.64-1.37-1.35-1.19a2.32,2.32,0,0,0-1.45,1.55,4.23,4.23,0,0,0-.15,2.93,2.62,2.62,0,0,0,2.19,1.78,1.93,1.93,0,0,0,2-1.77" transform="translate(1.2 -1.58)" fill="none" stroke="#640b18" stroke-linejoin="round" stroke-width="1.72"/><path d="M239.27,352.34a28.66,28.66,0,0,0-.35-15.18,44.7,44.7,0,0,0,.33,16c.18.88.51,1.9,1.37,2.17a1.81,1.81,0,0,0,2-1.17,5.31,5.31,0,0,0,.15-2.54l1.87,3.78,2.7-1.2" transform="translate(1.2 -1.58)" fill="none" stroke="#640b18" stroke-linejoin="round" stroke-width="1.72"/><path d="M197.93,368l-2.3-6.73c-.2-.59-.62-1.31-1.23-1.15-.43.11-.61.61-.71,1a43.43,43.43,0,0,0-1.25,9.56c0,2,.16,4.16,1.61,5.48a3.77,3.77,0,0,0,6-1.31" transform="translate(1.2 -1.58)" fill="none" stroke="#640b18" stroke-linejoin="round" stroke-width="1.72"/><path d="M202.17,371.52a21.6,21.6,0,0,0,.31,3.51,2.59,2.59,0,0,0,2.46,2.1,2.38,2.38,0,0,0,1.91-2.11,7.07,7.07,0,0,0-.43-3,3.92,3.92,0,0,0,.54,3.17,4,4,0,0,0,2.74,1.68" transform="translate(1.2 -1.58)" fill="none" stroke="#640b18" stroke-linejoin="round" stroke-width="1.72"/><path d="M213.48,371.84a2,2,0,0,0-2.09.19,2.07,2.07,0,0,0-.76,2c1,.93,2.93-.05,3.71,1a1.37,1.37,0,0,1-.53,1.88,2.38,2.38,0,0,1-2.13,0" transform="translate(1.2 -1.58)" fill="none" stroke="#640b18" stroke-linejoin="round" stroke-width="1.72"/><path d="M216.35,358.33l1.24,15.59a6,6,0,0,0,.39,2,2,2,0,0,0,1.48,1.24,2,2,0,0,0,1.75-.84,6,6,0,0,0,.86-1.83" transform="translate(1.2 -1.58)" fill="none" stroke="#640b18" stroke-linejoin="round" stroke-width="1.72"/><path d="M214.24,367l6.34-2.07" transform="translate(1.2 -1.58)" fill="none" stroke="#640b18" stroke-linejoin="round" stroke-width="1.72"/><path d="M223.89,375.48a1.5,1.5,0,0,0,.78,1.51,1.93,1.93,0,0,0,2.28-.68,3.1,3.1,0,0,0,.4-2.47c-.23-1.07-1.12-2.16-2.21-2a2,2,0,0,0-1.47,2,5,5,0,0,0,.33,2.42" transform="translate(1.2 -1.58)" fill="none" stroke="#640b18" stroke-linejoin="round" stroke-width="1.72"/><path d="M229.59,370.8l.81,6.34c-.09-1.55-.72-4.54-.81-6.09a14.06,14.06,0,0,0,1.45,3.48,1.68,1.68,0,0,0,2,.49,1.64,1.64,0,0,0,.72-1.41,6.83,6.83,0,0,0-.17-2,38.87,38.87,0,0,0,1,5.7" transform="translate(1.2 -1.58)" fill="none" stroke="#640b18" stroke-linejoin="round" stroke-width="1.72"/><path d="M236.13,374.26a2.23,2.23,0,0,0,3.23-.59,1.63,1.63,0,0,0,.19-1.27,1.13,1.13,0,0,0-.93-.81,1.21,1.21,0,0,0-1.12.64,2.51,2.51,0,0,0-.27,1.32,4.09,4.09,0,0,0,.86,2.57,2.69,2.69,0,0,0,2.45,1,2.05,2.05,0,0,0,1.69-1.9" transform="translate(1.2 -1.58)" fill="none" stroke="#640b18" stroke-linejoin="round" stroke-width="1.72"/><path d="M243.76,371.73l1.23,5.44a4.73,4.73,0,0,0,.14-2.31,4.9,4.9,0,0,1,.11-2.32,1.65,1.65,0,0,1,1.82-1.11" transform="translate(1.2 -1.58)" fill="none" stroke="#640b18" stroke-linejoin="round" stroke-width="1.72"/><path d="M251.39,371.12a1.6,1.6,0,0,0-1.76.38,1.58,1.58,0,0,0-.23,1.79c.43.82,1.54,1.16,1.87,2a1.37,1.37,0,0,1-2.31,1.4" transform="translate(1.2 -1.58)" fill="none" stroke="#640b18" stroke-linejoin="round" stroke-width="1.72"/><path d="M306.36,330.14c-.87-2.09-2.3-4.55-4.57-4.39a3.74,3.74,0,0,0-3.07,3.12,10.83,10.83,0,0,0,.38,4.65l7.15,31.09L301.83,359" transform="translate(1.2 -1.58)" fill="none" stroke="#640b18" stroke-linejoin="round" stroke-width="1.73"/><path d="M296.34,347l11.26-2.6" transform="translate(1.2 -1.58)" fill="none" stroke="#640b18" stroke-linejoin="round" stroke-width="1.73"/><path d="M307.93,351.25a7.44,7.44,0,0,0,1,4.8c.37.61,1.08,1.22,1.77.89a1.67,1.67,0,0,0,.74-1.09,8.28,8.28,0,0,0,0-4.88,7.61,7.61,0,0,0,1.26,4.64,2.15,2.15,0,0,0,.93.86,1.08,1.08,0,0,0,1.23-.3" transform="translate(1.2 -1.58)" fill="none" stroke="#640b18" stroke-linejoin="round" stroke-width="1.73"/><path d="M316.25,350.53l2.27,6.59a15.61,15.61,0,0,1,.08-4.37,1.85,1.85,0,0,1,.64-1.3c.42-.28,1.15,0,1.09.48" transform="translate(1.2 -1.58)" fill="none" stroke="#640b18" stroke-linejoin="round" stroke-width="1.73"/><path d="M321.36,338.2,324,354.47a3.14,3.14,0,0,0,1.25,2.46,2.1,2.1,0,0,0,2.26-.41,6.29,6.29,0,0,0,1.38-2" transform="translate(1.2 -1.58)" fill="none" stroke="#640b18" stroke-linejoin="round" stroke-width="1.73"/><path d="M319.6,346.77l6.35-1.59" transform="translate(1.2 -1.58)" fill="none" stroke="#640b18" stroke-linejoin="round" stroke-width="1.73"/><path d="M328.66,340.64l3.27,16a5,5,0,0,0,1.78-3.9l1.77,3a2.76,2.76,0,0,0,1.27,1.32c.58.21,1.4-.19,1.33-.8" transform="translate(1.2 -1.58)" fill="none" stroke="#640b18" stroke-linejoin="round" stroke-width="1.73"/><path d="M338.51,354.08a2.24,2.24,0,0,0,3.35-.74,1.56,1.56,0,0,0,0-1.3,1,1,0,0,0-1.11-.55c-.57.17-.77.86-.84,1.44a4.58,4.58,0,0,0,.31,2.49,2.21,2.21,0,0,0,2,1.31,2.33,2.33,0,0,0,1.85-1.49,6.83,6.83,0,0,0,.4-2.46l1,4.33a8.53,8.53,0,0,1-.12-2.71,2.83,2.83,0,0,1,1.48-2.16,2.15,2.15,0,0,1,2.23.3" transform="translate(1.2 -1.58)" fill="none" stroke="#640b18" stroke-linejoin="round" stroke-width="1.73"/><path d="M306.77,369.83c-1.28-.26-2.47,1-2.66,2.3a8.12,8.12,0,0,0,.77,3.81A55.08,55.08,0,0,1,308,389.7a4.7,4.7,0,0,1-3.46-4.22" transform="translate(1.2 -1.58)" fill="none" stroke="#640b18" stroke-linejoin="round" stroke-width="1.73"/><path d="M303.5,379.38l5.77-1.18" transform="translate(1.2 -1.58)" fill="none" stroke="#640b18" stroke-linejoin="round" stroke-width="1.73"/><path d="M310.39,374.53a14.23,14.23,0,0,1,.67,3.07c.25,1,1.06,2.08,2.1,2a1.94,1.94,0,0,0,1.5-2.11,5.66,5.66,0,0,0-1.09-2.61l.34.8" transform="translate(1.2 -1.58)" fill="none" stroke="#640b18" stroke-linejoin="round" stroke-width="1.73"/><path d="M316.22,375.86l1.15,3.73a4.29,4.29,0,0,0-.45-2.38,2,2,0,0,1,.36-2.26,1.51,1.51,0,0,1,1.74.21,4.31,4.31,0,0,1,1.05,1.54,12.25,12.25,0,0,1,.91,3.22" transform="translate(1.2 -1.58)" fill="none" stroke="#640b18" stroke-linejoin="round" stroke-width="1.73"/><path d="M325.75,375a1.3,1.3,0,0,0-1.12-.63,2,2,0,0,0-1.56,1.05,5.92,5.92,0,0,0-.57,1.86c-.14.73-.23,1.63.35,2.1a1.42,1.42,0,0,0,1.85-.25,3.5,3.5,0,0,0,.77-1.88c.47-2.68-.25-5.77-.66-8.59.53,3.43,1,7.4,1.55,10.83l.86-.41" transform="translate(1.2 -1.58)" fill="none" stroke="#640b18" stroke-linejoin="round" stroke-width="1.73"/><path d="M328.86,374.46a9.05,9.05,0,0,0,0,2.7,3.12,3.12,0,0,0,1.44,2.18,1.92,1.92,0,0,0,2.43-.44" transform="translate(1.2 -1.58)" fill="none" stroke="#640b18" stroke-linejoin="round" stroke-width="1.73"/><path d="M334.3,374.9l1,4.69a2.75,2.75,0,0,0,.05-1.88,5.32,5.32,0,0,1-.28-1.89,1.38,1.38,0,0,1,1.19-1.29,1.33,1.33,0,0,1,1.08.66,4,4,0,0,1,.44,1.25l.74,3.21" transform="translate(1.2 -1.58)" fill="none" stroke="#640b18" stroke-linejoin="round" stroke-width="1.73"/><path d="M343.76,375c.13-.57-.92-1.25-1.46-1a2.36,2.36,0,0,0-1.08,1.33,4.67,4.67,0,0,0-.58,2.59,1.75,1.75,0,0,0,1.83,1.56,1.64,1.64,0,0,0,1.22-1.47,3.32,3.32,0,0,0-.5-1.95,56,56,0,0,1,1.94,12.26,5.6,5.6,0,0,1-2.24-.22,1.87,1.87,0,0,1-1.26-1.7,2.8,2.8,0,0,1,.84-1.55l2.89-3.3" transform="translate(1.2 -1.58)" fill="none" stroke="#640b18" stroke-linejoin="round" stroke-width="1.73"/><path d="M328.19,372.4l1.49-.94" transform="translate(1.2 -1.58)" fill="none" stroke="#640b18" stroke-linejoin="round" stroke-width="1.73"/><path d="M201.92,164.72a175.16,175.16,0,0,0,4.72,26.11l.92-.6" transform="translate(1.2 -1.58)" fill="none" stroke="#640b18" stroke-linejoin="round" stroke-width="1.68"/><path d="M196.79,179.78a15.5,15.5,0,0,1,2.48-5.06,5.3,5.3,0,0,1,5-2c2.41.55,3.75,3.34,3.53,5.8s-1.58,4.66-2.9,6.75a14.71,14.71,0,0,1,2.78-4,5,5,0,0,1,4.51-1.35,4.63,4.63,0,0,1,3,4.83,8.54,8.54,0,0,1-2.85,5.31,5.06,5.06,0,0,1-2.61,1.54,2.2,2.2,0,0,1-2.48-1.34" transform="translate(1.2 -1.58)" fill="none" stroke="#640b18" stroke-linejoin="round" stroke-width="1.68"/><path d="M223.84,186.05a.71.71,0,0,1,.48-1.07,1.08,1.08,0,0,1,1.1.7,2.27,2.27,0,0,1,0,1.39,4.86,4.86,0,0,1-1.94,2.79,14.52,14.52,0,0,1,3.84.15" transform="translate(1.2 -1.58)" fill="none" stroke="#640b18" stroke-linejoin="round" stroke-width="1.68"/><path d="M228.86,184.42l2.75,15.81" transform="translate(1.2 -1.58)" fill="none" stroke="#640b18" stroke-linejoin="round" stroke-width="1.68"/><path d="M228.37,187.36a2.34,2.34,0,1,1,1.24,1.94,1.37,1.37,0,0,1,1,.44" transform="translate(1.2 -1.58)" fill="none" stroke="#640b18" stroke-linejoin="round" stroke-width="1.68"/><path d="M234.8,187.08a17,17,0,0,0-.08-15.05,41,41,0,0,0,.46,15,5.59,5.59,0,0,0,.73,2,2.07,2.07,0,0,0,1.8,1,1.3,1.3,0,0,0,1.21-1.45" transform="translate(1.2 -1.58)" fill="none" stroke="#640b18" stroke-linejoin="round" stroke-width="1.68"/><path d="M243.48,186.74a1.1,1.1,0,0,0-.75-1.87,1.52,1.52,0,0,0-1.21.65,4.49,4.49,0,0,0-.59,1.3c-.29.88-.55,1.94,0,2.66a1.69,1.69,0,0,0,2,.33,2.8,2.8,0,0,0,1.33-1.69,8.81,8.81,0,0,0,.29-2.18,2.63,2.63,0,0,0,.75,3.37,2.1,2.1,0,0,0,3.06-1.1" transform="translate(1.2 -1.58)" fill="none" stroke="#640b18" stroke-linejoin="round" stroke-width="1.68"/><path d="M249.33,183.75l1.79,6.25a3.41,3.41,0,0,0,0-1.9,4.44,4.44,0,0,1-.13-1.91,1.39,1.39,0,0,1,1.34-1.15c.75.07,1.15.9,1.41,1.61l1.19,3.3.9-.44" transform="translate(1.2 -1.58)" fill="none" stroke="#640b18" stroke-linejoin="round" stroke-width="1.68"/><path d="M218.29,185.14l0-.4a4.79,4.79,0,0,1,.35,1.95,6.57,6.57,0,0,0,.26,2,2,2,0,0,0,1.38,1.31,1.18,1.18,0,0,0,1.4-1" transform="translate(1.2 -1.58)" fill="none" stroke="#640b18" stroke-linejoin="round" stroke-width="1.68"/><path d="M216.61,182.06l1.82-1.68" transform="translate(1.2 -1.58)" fill="none" stroke="#640b18" stroke-linejoin="round" stroke-width="1.68"/><path d="M227.2,213.65l1.8,6.25a3.54,3.54,0,0,0,0-1.91,4.43,4.43,0,0,1-.13-1.91,1.39,1.39,0,0,1,1.34-1.15c.75.07,1.15.9,1.4,1.61.42,1.15,1.22,3.4,1.19,3.31" transform="translate(1.2 -1.58)" fill="none" stroke="#640b18" stroke-linejoin="round" stroke-width="1.68"/><path d="M233.86,213.65l1.79,6.25a3.45,3.45,0,0,0,0-1.91,4.43,4.43,0,0,1-.13-1.91,1.4,1.4,0,0,1,1.34-1.15c.75.07,1.15.9,1.41,1.61.41,1.15,1.22,3.4,1.18,3.31" transform="translate(1.2 -1.58)" fill="none" stroke="#640b18" stroke-linejoin="round" stroke-width="1.68"/><path d="M200.19,199.91l4.93,20.94.34-.77" transform="translate(1.2 -1.58)" fill="none" stroke="#640b18" stroke-linejoin="round" stroke-width="1.68"/><path d="M197.26,210.73a16.46,16.46,0,0,1,2-4.2A5.58,5.58,0,0,1,203,204.1a4.35,4.35,0,0,1,4.19,2.32,4.61,4.61,0,0,1-.45,4.8,4.92,4.92,0,0,1-4.5,1.83" transform="translate(1.2 -1.58)" fill="none" stroke="#640b18" stroke-linejoin="round" stroke-width="1.68"/><path d="M210.51,215.76a24.82,24.82,0,0,0-.49-16.95,57.28,57.28,0,0,0,.66,16.53,6.44,6.44,0,0,0,1.82,4c1.15.95,3.28.76,3.74-.66" transform="translate(1.2 -1.58)" fill="none" stroke="#640b18" stroke-linejoin="round" stroke-width="1.68"/><path d="M221.33,214.34a1.19,1.19,0,0,0-.72-1.75,1.92,1.92,0,0,0-1.94.85,5.51,5.51,0,0,0-.78,2.09,6.43,6.43,0,0,0-.25,2.42,2.23,2.23,0,0,0,1.37,1.86,2.26,2.26,0,0,0,2.57-1.36,6.64,6.64,0,0,0,.38-3.14,4.9,4.9,0,0,0,2,4.36l2.36-1.64" transform="translate(1.2 -1.58)" fill="none" stroke="#640b18" stroke-linejoin="round" stroke-width="1.68"/><path d="M246.73,215l1.49,4.5a5.18,5.18,0,0,1-.56-2.57,1.77,1.77,0,0,1,1.76-1.62c1,.12,1.45,1.28,1.56,2.27a4.12,4.12,0,0,0,.84,2.63" transform="translate(1.2 -1.58)" fill="none" stroke="#640b18" stroke-linejoin="round" stroke-width="1.68"/><path d="M257.63,216a1.45,1.45,0,0,0-1.91-.95,3.07,3.07,0,0,0-1.61,1.74c-.42.94-.5,2.27.39,2.77a1.7,1.7,0,0,0,2.17-.9,4.89,4.89,0,0,0,.28-2.58l2.53,14.58a11.23,11.23,0,0,0-6.13-1.22l5.1-8.19" transform="translate(1.2 -1.58)" fill="none" stroke="#640b18" stroke-linejoin="round" stroke-width="1.68"/><path d="M241.39,214.23l1.44,5.67a2.32,2.32,0,0,0,2-1.29" transform="translate(1.2 -1.58)" fill="none" stroke="#640b18" stroke-linejoin="round" stroke-width="1.68"/><path d="M240.54,211.74l1.15-1.47" transform="translate(1.2 -1.58)" fill="none" stroke="#640b18" stroke-linejoin="round" stroke-width="1.68"/><path d="M361.36,251a2.38,2.38,0,0,0-2.33-1.73,3.15,3.15,0,0,0-2.56,1.56,4.69,4.69,0,0,0-.54,3,3,3,0,0,0,1.83,2.62,2.63,2.63,0,0,0,2.93-1.93,7.7,7.7,0,0,0-.12-3.84,8.71,8.71,0,0,0,.22,3.34,3,3,0,0,0,2.35,2.14,1.84,1.84,0,0,0,2-2" transform="translate(1.2 -1.58)" fill="none" stroke="#640b18" stroke-linejoin="round" stroke-width="1.76"/><path d="M337.89,244.94a14.86,14.86,0,0,0-3.4-10,71.26,71.26,0,0,0,0,16.19,7.33,7.33,0,0,0,1.58,4.41,3.82,3.82,0,0,0,6.55-2.62" transform="translate(1.2 -1.58)" fill="none" stroke="#640b18" stroke-linejoin="round" stroke-width="1.76"/><path d="M345.44,255.17a26.91,26.91,0,0,0,1.5-18.81,35.86,35.86,0,0,0-1.57,13,11.1,11.1,0,0,0,1.07,4.58,4.79,4.79,0,0,0,3.67,2.67,3.11,3.11,0,0,0,3.35-2.63" transform="translate(1.2 -1.58)" fill="none" stroke="#640b18" stroke-linejoin="round" stroke-width="1.76"/><path d="M365.44,248.69l2.65,8a2.92,2.92,0,0,0,.39-2.58c-.2-.89-.6-1.72-.73-2.62a2.5,2.5,0,0,1,.83-2.44c.74-.51,2-.09,2.07.82" transform="translate(1.2 -1.58)" fill="none" stroke="#640b18" stroke-linejoin="round" stroke-width="1.76"/><path d="M373.58,249.15a6.09,6.09,0,0,1,.91,3.43,5.34,5.34,0,0,0,1.05,3.38c.82.89,2.55,1,3-.14" transform="translate(1.2 -1.58)" fill="none" stroke="#640b18" stroke-linejoin="round" stroke-width="1.76"/><path d="M371.82,247.08l2-2" transform="translate(1.2 -1.58)" fill="none" stroke="#640b18" stroke-linejoin="round" stroke-width="1.76"/><path d="M378.5,235.33l2.27,17.73c.19,1.43.62,3.16,2,3.52a2.45,2.45,0,0,0,2.23-.71,7.08,7.08,0,0,0,1.35-2" transform="translate(1.2 -1.58)" fill="none" stroke="#640b18" stroke-linejoin="round" stroke-width="1.76"/><path d="M376.63,243.57a11.67,11.67,0,0,0,7.56-1.82" transform="translate(1.2 -1.58)" fill="none" stroke="#640b18" stroke-linejoin="round" stroke-width="1.76"/><path d="M386.26,248.79a27.26,27.26,0,0,0,.32,4.69,3.06,3.06,0,0,0,1.46,2.13,2.34,2.34,0,0,0,3-.86c.58-1,0-4.42-1-5.06,1.42,5.91,3.12,13.86,4.54,19.77a13.8,13.8,0,0,0-11.32-1.31l6.29-6.63" transform="translate(1.2 -1.58)" fill="none" stroke="#640b18" stroke-linejoin="round" stroke-width="1.76"/><path d="M342.24,281.66l-1.62-18.42a46,46,0,0,0,3.49,9.51c.48,1,1.3,2.09,2.37,1.89.76-.14,1.07-.8,1.32-1.44a13.44,13.44,0,0,0,.57-4.47,47.48,47.48,0,0,0,.26-4.77c.92,5.19,1.93,13.31,2.85,18.5" transform="translate(1.2 -1.58)" fill="none" stroke="#640b18" stroke-linejoin="round" stroke-width="1.76"/><path d="M354.23,280a3.19,3.19,0,0,0,2.67-3,1.73,1.73,0,0,0-.24-1,.91.91,0,0,0-.88-.43c-.65.12-.82.95-.84,1.6a6.6,6.6,0,0,0,.25,2.66,2.31,2.31,0,0,0,2,1.58,3,3,0,0,0,2.32-1.79" transform="translate(1.2 -1.58)" fill="none" stroke="#640b18" stroke-linejoin="round" stroke-width="1.76"/><path d="M362,276.51l-.29-.24,1,5a3.22,3.22,0,0,0,0-2.31c-.15-.77-.15-1.73.52-2.15a1.58,1.58,0,0,1,2.05.75,7.48,7.48,0,0,1,.61,2.35,2.73,2.73,0,0,0,.45,1.1,1.17,1.17,0,0,0,1,.48" transform="translate(1.2 -1.58)" fill="none" stroke="#640b18" stroke-linejoin="round" stroke-width="1.76"/><path d="M366,263.56l0-.77,3,16.6a2.58,2.58,0,0,0,1,1.91,1.75,1.75,0,0,0,2-.4A5,5,0,0,0,373,279" transform="translate(1.2 -1.58)" fill="none" stroke="#640b18" stroke-linejoin="round" stroke-width="1.76"/><path d="M365.4,272.44a10.47,10.47,0,0,0,4.82-.8" transform="translate(1.2 -1.58)" fill="none" stroke="#640b18" stroke-linejoin="round" stroke-width="1.76"/><path d="M375,280.33a1.57,1.57,0,0,0,.64.89,1.88,1.88,0,0,0,2.09-.14,2.61,2.61,0,0,0,1-1.92,2.77,2.77,0,0,0-1.16-2.46,2.12,2.12,0,0,0-2.61.25,2.5,2.5,0,0,0-.41,2.38,4.34,4.34,0,0,0,.84,1.74" transform="translate(1.2 -1.58)" fill="none" stroke="#640b18" stroke-linejoin="round" stroke-width="1.76"/><path d="M380.49,276.74l2.16,4.74a8.64,8.64,0,0,1-.22-2.42,2.88,2.88,0,0,1,1.1-2.1,1.76,1.76,0,0,1,2.23.14" transform="translate(1.2 -1.58)" fill="none" stroke="#640b18" stroke-linejoin="round" stroke-width="1.76"/><path d="M389.68,275.31a1.64,1.64,0,0,0-1.74.82,1.66,1.66,0,0,0,.3,1.9,4.52,4.52,0,0,0,1.46.76,1.79,1.79,0,0,1,1.15,1.09,1.4,1.4,0,0,1-1.14,1.54,3.56,3.56,0,0,1-2.07-.32" transform="translate(1.2 -1.58)" fill="none" stroke="#640b18" stroke-linejoin="round" stroke-width="1.76"/><path d="M116.08,202.94l-16.82,27" transform="translate(1.2 -1.58)" fill="none" stroke="#640b18" stroke-linejoin="round" stroke-width="1.68"/><path d="M99.19,205.27a126.75,126.75,0,0,0,24.29,25.48" transform="translate(1.2 -1.58)" fill="none" stroke="#640b18" stroke-linejoin="round" stroke-width="1.68"/><g opacity="0.8"><path d="M295.37,278.13l31.32-13.19" transform="translate(1.2 -1.58)" fill="none" stroke="#640b18" stroke-linejoin="round" stroke-width="1.72"/><path d="M233,268.14,227.57,238" transform="translate(1.2 -1.58)" fill="none" stroke="#640b18" stroke-linejoin="round" stroke-width="1.72"/><path d="M172,270.32c-6.27-6.18-26-21.14-32.29-27.32" transform="translate(1.2 -1.58)" fill="none" stroke="#640b18" stroke-linejoin="round" stroke-width="1.72"/><path d="M169.87,295.17l-43,12,1.91-.74" transform="translate(1.2 -1.58)" fill="none" stroke="#640b18" stroke-linejoin="round" stroke-width="1.72"/><path d="M221.36,311.34l-.67,20.1" transform="translate(1.2 -1.58)" fill="none" stroke="#640b18" stroke-linejoin="round" stroke-width="1.72"/><path d="M276.07,313.07l10.09,16.72" transform="translate(1.2 -1.58)" fill="none" stroke="#640b18" stroke-linejoin="round" stroke-width="1.72"/></g><rect x="165.89" y="97.51" width="134.96" height="29.26" rx="4.4" fill="none" stroke="#640b18" stroke-linejoin="round" stroke-width="1.72"/><path d="M192.86,99.55l.51,11.58a49.65,49.65,0,0,0,.58,6.56,5.23,5.23,0,0,0,1.53,3.29c1,.77,2.69.67,3.17-.47" transform="translate(1.2 -1.58)" fill="none" stroke="#640b18" stroke-linejoin="round" stroke-width="1.74"/><path d="M189.62,107.26a45.43,45.43,0,0,1,6.37-1" transform="translate(1.2 -1.58)" fill="none" stroke="#640b18" stroke-linejoin="round" stroke-width="1.74"/><path d="M207.36,114.86a2.17,2.17,0,0,0-1.32-1.57,2.14,2.14,0,0,0-2,.27,4.3,4.3,0,0,0-1.32,2.75c-.31,1.48-.44,4.74,1.21,5.57a2.64,2.64,0,0,0,2.92-.57,4,4,0,0,0,1.08-2.9,9.88,9.88,0,0,1,0-2.43,12.66,12.66,0,0,0,.27,3.47,4.4,4.4,0,0,0,1.37,2.65,2,2,0,0,0,2.72-.15" transform="translate(1.2 -1.58)" fill="none" stroke="#640b18" stroke-linejoin="round" stroke-width="1.74"/><path d="M214.41,113.45l1.52,8.66a17.71,17.71,0,0,0,.39-3.93,4,4,0,0,1,1.78-3.34,1.51,1.51,0,0,1,1.47,0" transform="translate(1.2 -1.58)" fill="none" stroke="#640b18" stroke-linejoin="round" stroke-width="1.74"/><path d="M223.26,98.73c.52,6.94.15,14,.3,20.94a3.69,3.69,0,0,0,.59,2.32c.53.63,1.7.75,2.07,0" transform="translate(1.2 -1.58)" fill="none" stroke="#640b18" stroke-linejoin="round" stroke-width="1.74"/><path d="M220.53,103.67l5.1-.9" transform="translate(1.2 -1.58)" fill="none" stroke="#640b18" stroke-linejoin="round" stroke-width="1.74"/><path d="M230.21,113.62a23.16,23.16,0,0,0,.41,7.19,2.21,2.21,0,0,0,2.62,1.49,3.4,3.4,0,0,0,2.28-2.26,7.84,7.84,0,0,0,.22-3.31,22,22,0,0,0-.48-2.79.6.6,0,1,0,0,.1" transform="translate(1.2 -1.58)" fill="none" stroke="#640b18" stroke-linejoin="round" stroke-width="1.74"/><path d="M240.46,112.43q.84,8.46,1.17,16.95" transform="translate(1.2 -1.58)" fill="none" stroke="#640b18" stroke-linejoin="round" stroke-width="1.74"/><path d="M239.56,116.33a4.26,4.26,0,0,1,5-1.59,3.42,3.42,0,0,1,1.61,4.72,5,5,0,0,1-1.54,1.41c-.65.42-1.57.78-2.16.27" transform="translate(1.2 -1.58)" fill="none" stroke="#640b18" stroke-linejoin="round" stroke-width="1.74"/><path d="M252.44,113.74a.93.93,0,0,0-1.06-.41,1.42,1.42,0,0,0-.88.8,2.14,2.14,0,0,0,.45,2.43,8.81,8.81,0,0,0,.85.62,3.86,3.86,0,0,1,1.31,1.76,2.2,2.2,0,0,1,0,1.69,2,2,0,0,1-1.66,1,2.5,2.5,0,0,1-1.33-.14,1,1,0,0,1-.39-.55" transform="translate(1.2 -1.58)" fill="none" stroke="#640b18" stroke-linejoin="round" stroke-width="1.74"/><path d="M256.38,121.69h1.28" transform="translate(1.2 -1.58)" fill="none" stroke="#640b18" stroke-linejoin="round" stroke-width="1.74"/><path d="M263.65,115.16a.81.81,0,0,0-.61-1.08,1.29,1.29,0,0,0-1.23.58,3.18,3.18,0,0,0-.45,1.35,5.66,5.66,0,0,0,.76,4.22A2.82,2.82,0,0,0,266,121" transform="translate(1.2 -1.58)" fill="none" stroke="#640b18" stroke-linejoin="round" stroke-width="1.74"/><path d="M269,118.38a5.68,5.68,0,0,0,.48,2.2,2,2,0,0,0,1.79,1.18,1.91,1.91,0,0,0,1.57-1.35,4.13,4.13,0,0,0,0-2.18,10.55,10.55,0,0,0-1.06-2.87c-.33-.62-1-1.3-1.63-1a1.54,1.54,0,0,0-.68.72c-.51.85-1,1.91-.53,2.76" transform="translate(1.2 -1.58)" fill="none" stroke="#640b18" stroke-linejoin="round" stroke-width="1.74"/><path d="M186.51,111.77a3,3,0,0,0-2.84,3.48,10.72,10.72,0,0,1,3.09.54,3.58,3.58,0,0,1,2.17,2.13,2.69,2.69,0,0,1-1.17,3,2.72,2.72,0,0,1-3.21-.41" transform="translate(1.2 -1.58)" fill="none" stroke="#640b18" stroke-linejoin="round" stroke-width="1.74"/><path d="M154.47,133,306.26,96.56" transform="translate(1.2 -1.58)" fill="none" stroke="#640b18" stroke-linejoin="round" stroke-width="1.74"/><path d="M154.47,92.35q75.5,20.33,151.79,37.56" transform="translate(1.2 -1.58)" fill="none" stroke="#640b18" stroke-linejoin="round" stroke-width="1.74"/><rect x="174.68" y="270.48" width="119.14" height="37.44" rx="6.57" fill="none" stroke="#640b18" stroke-linejoin="round" stroke-width="1.72"/><circle cx="134.92" cy="379.1" r="3.1" fill="none" stroke="#640b18" stroke-linejoin="round" stroke-width="1.72" opacity="0.8"/><polyline points="138.01 379.1 156.42 379.1 188.65 360.77" fill="none" stroke="#640b18" stroke-linejoin="round" stroke-width="1.72" opacity="0.8"/><path d="M191.17,455.14l-.43,4.64" transform="translate(1.2 -1.58)" fill="none" stroke="#640b18" stroke-linejoin="round" stroke-width="1.64"/><path d="M196.16,451l0-1.29a9.23,9.23,0,0,0,1.81,6.36,4.65,4.65,0,0,0,.72-5.8l2.3,4.55a5.43,5.43,0,0,0,.3-5.44l.53.93" transform="translate(1.2 -1.58)" fill="none" stroke="#640b18" stroke-linejoin="round" stroke-width="1.64"/><path d="M206.78,451.73a3.33,3.33,0,0,0,1.66-.81,1.16,1.16,0,0,0,0-1.66,1.13,1.13,0,0,0-1.46.33,3,3,0,0,0-.51,1.54c-.16,1.35,0,3,1.13,3.66a2.63,2.63,0,0,0,2.8-.31,7.9,7.9,0,0,0,1.88-2.29" transform="translate(1.2 -1.58)" fill="none" stroke="#640b18" stroke-linejoin="round" stroke-width="1.64"/><path d="M70.35,459a38.69,38.69,0,0,1,2.71-14.3,1.61,1.61,0,0,1,2,.56,4.7,4.7,0,0,1,.68,2.21l1.55,11.78" transform="translate(1.2 -1.58)" fill="none" stroke="#640b18" stroke-linejoin="round" stroke-width="2.22"/><path d="M68.42,455.45l10.38-3.94" transform="translate(1.2 -1.58)" fill="none" stroke="#640b18" stroke-linejoin="round" stroke-width="2.22"/><g opacity="0.8"><path d="M100.6,436.08l.49,10.92a47.44,47.44,0,0,0,.54,6.19,4.93,4.93,0,0,0,1.45,3.1c.91.73,2.53.63,3-.44" transform="translate(1.2 -1.58)" fill="none" stroke="#640b18" stroke-linejoin="round" stroke-width="1.64"/><path d="M97.55,443.36a40.45,40.45,0,0,1,6-1" transform="translate(1.2 -1.58)" fill="none" stroke="#640b18" stroke-linejoin="round" stroke-width="1.64"/><path d="M114.28,450.52a2,2,0,0,0-3.16-1.23,4.09,4.09,0,0,0-1.25,2.6c-.29,1.39-.41,4.47,1.14,5.25a2.48,2.48,0,0,0,2.76-.54,3.79,3.79,0,0,0,1-2.74,9.75,9.75,0,0,1,0-2.29,12.44,12.44,0,0,0,.26,3.28,4.18,4.18,0,0,0,1.29,2.5,1.86,1.86,0,0,0,2.57-.15" transform="translate(1.2 -1.58)" fill="none" stroke="#640b18" stroke-linejoin="round" stroke-width="1.64"/><path d="M120.93,449.19l1.43,8.16a16.83,16.83,0,0,0,.36-3.7,3.78,3.78,0,0,1,1.69-3.15,1.39,1.39,0,0,1,1.38,0" transform="translate(1.2 -1.58)" fill="none" stroke="#640b18" stroke-linejoin="round" stroke-width="1.64"/><path d="M129.26,435.32c.5,6.54.15,13.16.29,19.73a3.55,3.55,0,0,0,.56,2.2c.49.59,1.6.7,1.95,0" transform="translate(1.2 -1.58)" fill="none" stroke="#640b18" stroke-linejoin="round" stroke-width="1.64"/><path d="M126.7,440l4.8-.85" transform="translate(1.2 -1.58)" fill="none" stroke="#640b18" stroke-linejoin="round" stroke-width="1.64"/><path d="M135.82,449.35a22.06,22.06,0,0,0,.39,6.78,2.06,2.06,0,0,0,2.46,1.4,3.16,3.16,0,0,0,2.15-2.12,7.18,7.18,0,0,0,.21-3.13,19.39,19.39,0,0,0-.45-2.62.57.57,0,0,0-.88-.29.54.54,0,1,0,.89.38" transform="translate(1.2 -1.58)" fill="none" stroke="#640b18" stroke-linejoin="round" stroke-width="1.64"/><path d="M145.49,448.23c.52,5.31.89,10.65,1.1,16" transform="translate(1.2 -1.58)" fill="none" stroke="#640b18" stroke-linejoin="round" stroke-width="1.64"/><path d="M144.63,451.91a4,4,0,0,1,4.71-1.51,3.24,3.24,0,0,1,1.52,4.46,4.86,4.86,0,0,1-1.45,1.33c-.62.4-1.48.73-2,.25" transform="translate(1.2 -1.58)" fill="none" stroke="#640b18" stroke-linejoin="round" stroke-width="1.64"/><path d="M156.78,449.47a.88.88,0,0,0-1-.4,1.38,1.38,0,0,0-.83.76,2,2,0,0,0,.42,2.29,8,8,0,0,0,.81.59,3.63,3.63,0,0,1,1.23,1.66,2,2,0,0,1,0,1.59,1.82,1.82,0,0,1-1.56.9,2.25,2.25,0,0,1-1.26-.13,1,1,0,0,1-.37-.51" transform="translate(1.2 -1.58)" fill="none" stroke="#640b18" stroke-linejoin="round" stroke-width="1.64"/><path d="M160.49,457h1.21" transform="translate(1.2 -1.58)" fill="none" stroke="#640b18" stroke-linejoin="round" stroke-width="1.64"/><path d="M167.35,450.81a.77.77,0,0,0-.58-1,1.2,1.2,0,0,0-1.16.54,3,3,0,0,0-.42,1.28,5.39,5.39,0,0,0,.71,4,2.67,2.67,0,0,0,3.65.7" transform="translate(1.2 -1.58)" fill="none" stroke="#640b18" stroke-linejoin="round" stroke-width="1.64"/><path d="M172.39,453.84a5.57,5.57,0,0,0,.45,2.07,1.88,1.88,0,0,0,1.69,1.11,1.79,1.79,0,0,0,1.48-1.27,3.85,3.85,0,0,0,0-2.05,10,10,0,0,0-1-2.71c-.32-.59-.93-1.22-1.55-1a1.51,1.51,0,0,0-.64.68c-.48.8-1,1.8-.5,2.6" transform="translate(1.2 -1.58)" fill="none" stroke="#640b18" stroke-linejoin="round" stroke-width="1.64"/><path d="M179.57,456.71a40.59,40.59,0,0,1,.13-5.29,2.46,2.46,0,0,1,.73-1.83.38.38,0,0,1,.3-.09c.14,0,.2.21.24.35l.6,2.45c.17.69.52,1.53,1.23,1.53.55,0,.95-.55,1.12-1.08a4.74,4.74,0,0,1,.55-1.57l1,3.17c.34,1.06.78,2.26,1.81,2.68" transform="translate(1.2 -1.58)" fill="none" stroke="#640b18" stroke-linejoin="round" stroke-width="1.64"/><path d="M94.62,447.61A2.8,2.8,0,0,0,92,450.89a9.82,9.82,0,0,1,2.9.51,3.36,3.36,0,0,1,2.05,2,2.47,2.47,0,0,1-4.12,2.45" transform="translate(1.2 -1.58)" fill="none" stroke="#640b18" stroke-linejoin="round" stroke-width="1.64"/></g><path d="M41.65,455.24l192.53-11" transform="translate(1.2 -1.58)" fill="none" stroke="#640b18" stroke-linejoin="round" stroke-width="1.9"/><path d="M66.87,456.34c68.28-4.49,138.46-7.13,206.74-11.62" transform="translate(1.2 -1.58)" fill="none" stroke="#640b18" stroke-linejoin="round" stroke-width="1.9"/><path d="M60.79,454.17c67.62-2.11,124.45,0,192.07-2.11" transform="translate(1.2 -1.58)" fill="none" stroke="#640b18" stroke-linejoin="round" stroke-width="1.9"/><path d="M44.6,460.56c84-5.77,168-9,252-14.74" transform="translate(1.2 -1.58)" fill="none" stroke="#640b18" stroke-linejoin="round" stroke-width="1.9"/><path d="M60.78,457.39c67.63-2.11,126.19,0,193.81-2.12" transform="translate(1.2 -1.58)" fill="none" stroke="#640b18" stroke-linejoin="round" stroke-width="1.9"/><path d="M462,557.67l-1.16-.14.17-1.47-10.62-1.23h0l-5.77-.67h0l-19.77-2.28a2,2,0,0,0-2.13,1.25L65.25,511.88l-.06.05-40.86,4L3.14,518l22.79,7.73,35.92,12.18.38.17.2,0h0L419.6,579.3h0a2.07,2.07,0,0,0,1.82,2.29l8.65,1,3.59.41h0l7.53.87h0l5.77.66h0l10.62,1.23.17-1.48,1.16.14a8,8,0,0,0,8.83-7L469,566.5A8,8,0,0,0,462,557.67ZM63.43,529.42l0-.21,357.18,41.22,0,.21Z" transform="translate(1.2 -1.58)" fill="#640b18" opacity="0.35" style="mix-blend-mode:multiply"/><polygon points="1.19 508.75 22.37 506.69 63.5 502.68 60.48 528.86 23.97 516.48 1.19 508.75" fill="#ffd571" stroke="#640b18" stroke-linecap="round" stroke-linejoin="round" stroke-width="2.38"/><polygon points="63.29 502.66 454.24 547.78 452.24 565.09 61.3 519.97 51.65 511.94 63.29 502.66" fill="#ec8522" stroke="#640b18" stroke-linecap="round" stroke-linejoin="round" stroke-width="2.38"/><polygon points="61.27 520.18 452.22 565.3 451.22 573.95 60.27 528.83 50.24 524.22 61.27 520.18" fill="#ff9e36" stroke="#640b18" stroke-linecap="round" stroke-linejoin="round" stroke-width="2.38"/><path d="M0,510.33l21.19-2.06a34.84,34.84,0,0,0,.65,6.53,29.63,29.63,0,0,0,1,3.26Z" transform="translate(1.2 -1.58)" fill="#640b18"/><path d="M417.8,546.11h36.94a1.52,1.52,0,0,1,1.52,1.52V574.5a1.52,1.52,0,0,1-1.52,1.52H417.8a0,0,0,0,1,0,0V546.11A0,0,0,0,1,417.8,546.11Z" transform="translate(808.06 1166.96) rotate(-173.42)" fill="#aac8c6" stroke="#640b18" stroke-linecap="round" stroke-linejoin="round" stroke-width="2.38"/><rect x="426.43" y="545.22" width="5.81" height="29.91" transform="translate(792.81 1164.31) rotate(-173.42)" stroke-width="2.38" stroke="#640b18" stroke-linecap="round" stroke-linejoin="round" fill="#ccdfde"/><rect x="439.73" y="546.76" width="5.81" height="29.91" transform="translate(819.15 1168.89) rotate(-173.42)" stroke-width="2.38" stroke="#640b18" stroke-linecap="round" stroke-linejoin="round" fill="#ccdfde"/><path d="M462,550.33h3.25a0,0,0,0,1,0,0v26.94a0,0,0,0,1,0,0H462a5.89,5.89,0,0,1-5.89-5.89V556.21A5.89,5.89,0,0,1,462,550.33Z" transform="translate(854.89 1175.11) rotate(-173.42)" fill="#e24b4b" stroke="#640b18" stroke-linecap="round" stroke-linejoin="round" stroke-width="2.38"/></g></svg>
