<svg viewBox="0 0 114 16" version="1.1" xmlns="http://www.w3.org/2000/svg" xmlns:xlink="http://www.w3.org/1999/xlink"><desc>Created with Sketch.</desc><defs></defs><g id="Page-1" stroke="none" stroke-width="1" fill="none" fill-rule="evenodd"><g id="startupscom" fill="#FFFFFF" fill-rule="nonzero"><path d="M7.3,7.5 C7,7.3 6.7,7.1 6.3,6.9 C5.9,6.7 5.6,6.6 5.2,6.5 C4.9,6.4 4.7,6.3 4.4,6.2 C4.2,6.1 3.9,6 3.8,5.9 C3.6,5.8 3.5,5.7 3.4,5.6 C3.3,5.5 3.2,5.4 3.2,5.2 C3.2,5 3.3,4.8 3.5,4.7 C3.7,4.6 3.9,4.5 4.3,4.5 C4.7,4.5 5.1,4.6 5.6,4.8 C6.1,5 6.6,5.2 7.1,5.5 L8.2,3.5 C7.7,3.1 7,2.9 6.4,2.6 C5.7,2.4 5.1,2.3 4.5,2.3 C4,2.3 3.5,2.4 3.1,2.5 C2.7,2.6 2.3,2.8 1.9,3.1 C1.6,3.4 1.3,3.7 1.1,4.1 C0.9,4.5 0.8,4.9 0.8,5.5 C0.8,6 0.9,6.4 1.1,6.7 C1.3,7 1.5,7.3 1.8,7.6 C2.1,7.8 2.4,8 2.8,8.2 C3.2,8.3 3.5,8.5 3.9,8.6 C4.2,8.7 4.4,8.8 4.7,8.8 C4.9,8.9 5.2,9 5.4,9 C5.6,9.1 5.7,9.2 5.9,9.3 C6,9.4 6.1,9.5 6.1,9.7 C6.1,9.9 6,10.1 5.8,10.2 C5.6,10.3 5.3,10.4 4.9,10.4 C4.4,10.4 3.9,10.3 3.4,10.1 C2.9,9.9 2.3,9.6 1.8,9.2 L0.6,11.1 C1.3,11.6 2,12 2.7,12.3 C3.4,12.5 4.2,12.7 4.9,12.7 C5.4,12.7 5.9,12.6 6.4,12.5 C6.9,12.4 7.3,12.2 7.6,11.9 C7.9,11.6 8.2,11.3 8.4,10.9 C8.6,10.5 8.7,10 8.7,9.4 C8.7,8.9 8.6,8.5 8.4,8.2 C7.9,8 7.6,7.8 7.3,7.5 Z M13,1.77635684e-15 L10.2,1.77635684e-15 L10.2,2.6 L9,2.6 L9,5 L10.2,5 L10.2,9.8 C10.2,10.4 10.3,10.9 10.4,11.3 C10.5,11.7 10.7,12 11,12.2 C11.3,12.4 11.6,12.6 11.9,12.7 C12.3,12.8 12.7,12.8 13.1,12.8 C13.6,12.8 14,12.7 14.4,12.6 C14.8,12.5 15.1,12.4 15.4,12.2 L15.4,9.9 C15,10.2 14.5,10.3 14,10.3 C13.4,10.3 13.1,10 13.1,9.3 L13.1,5 L15.5,5 L15.5,2.6 L13,2.6 L13,1.77635684e-15 Z M24.3,3.6 C23.9,3.2 23.5,3 22.9,2.8 C22.3,2.6 21.7,2.5 20.9,2.5 C20.1,2.5 19.3,2.6 18.7,2.7 C18.1,2.9 17.5,3 17,3.3 L17.7,5.5 C18.2,5.3 18.6,5.2 19,5.1 C19.4,5 19.9,5 20.5,5 C21.2,5 21.7,5.2 22.1,5.5 C22.5,5.8 22.6,6.3 22.6,6.9 L22.6,7.1 C22.2,7 21.9,6.9 21.5,6.8 C21.1,6.7 20.7,6.7 20.2,6.7 C19.6,6.7 19.1,6.8 18.6,6.9 C18.1,7 17.7,7.2 17.3,7.5 C16.9,7.8 16.7,8.1 16.5,8.5 C16.3,8.9 16.2,9.4 16.2,9.9 C16.2,10.4 16.3,10.8 16.5,11.2 C16.7,11.6 16.9,11.9 17.2,12.2 C17.5,12.5 17.9,12.7 18.3,12.8 C18.7,12.9 19.2,13 19.6,13 C20.3,13 20.9,12.9 21.4,12.7 C21.9,12.5 22.3,12.2 22.7,11.8 L22.7,12.9 L25.5,12.9 L25.5,7.1 C25.5,6.4 25.4,5.8 25.2,5.3 C24.9,4.4 24.6,4 24.3,3.6 Z M22.6,9.1 C22.6,9.6 22.4,10.1 22,10.4 C21.6,10.7 21.1,10.9 20.4,10.9 C19.9,10.9 19.6,10.8 19.3,10.6 C19,10.4 18.9,10.1 18.9,9.7 C18.9,9.2 19.1,8.9 19.4,8.7 C19.7,8.5 20.2,8.3 20.8,8.3 C21.1,8.3 21.5,8.3 21.8,8.4 C22.1,8.5 22.4,8.6 22.6,8.7 L22.6,9.1 Z M31.2,3 C30.7,3.4 30.3,4 30,4.7 L30,2.7 L27.2,2.7 L27.2,12.8 L30,12.8 L30,9.1 C30,7.9 30.3,7 30.8,6.4 C31.3,5.8 32.1,5.5 33,5.5 L33.1,5.5 L33.1,2.5 C32.4,2.4 31.7,2.5 31.2,3 Z M37.9,1.77635684e-15 L35,1.77635684e-15 L35,2.6 L33.8,2.6 L33.8,5 L35,5 L35,9.8 C35,10.4 35.1,10.9 35.2,11.3 C35.3,11.7 35.5,12 35.8,12.2 C36.1,12.4 36.4,12.6 36.7,12.7 C37.1,12.8 37.5,12.8 37.9,12.8 C38.4,12.8 38.8,12.7 39.2,12.6 C39.6,12.5 39.9,12.4 40.2,12.2 L40.2,9.9 C39.8,10.2 39.3,10.3 38.8,10.3 C38.2,10.3 37.9,10 37.9,9.3 L37.9,5 L40.3,5 L40.3,2.6 L37.9,2.6 L37.9,1.77635684e-15 Z M48,8.2 C48,8.9 47.8,9.4 47.5,9.7 C47.2,10 46.7,10.2 46.2,10.2 C45.6,10.2 45.2,10 44.9,9.7 C44.6,9.4 44.5,8.8 44.5,8.2 L44.5,2.6 L41.7,2.6 L41.7,9.1 C41.7,10.3 42,11.2 42.6,11.8 C43.2,12.5 44,12.8 45.1,12.8 C45.5,12.8 45.8,12.8 46.1,12.7 C46.4,12.6 46.6,12.5 46.9,12.3 C47.1,12.1 47.4,12 47.5,11.8 C47.7,11.6 47.9,11.4 48,11.2 L48,12.6 L50.8,12.6 L50.8,2.6 L48,2.6 L48,8.2 Z M61.9,3.7 C61.5,3.3 61,2.9 60.4,2.7 C59.9,2.5 59.3,2.4 58.7,2.4 C58,2.4 57.3,2.6 56.8,2.9 C56.3,3.2 55.9,3.6 55.5,4.1 L55.5,2.7 L52.7,2.7 L52.7,15.8 L55.5,15.8 L55.5,11.5 C55.8,11.9 56.3,12.3 56.7,12.6 C57.2,12.9 57.8,13.1 58.6,13.1 C59.2,13.1 59.8,13 60.3,12.8 C60.8,12.6 61.3,12.2 61.8,11.8 C62.2,11.4 62.6,10.8 62.8,10.2 C63.1,9.6 63.2,8.8 63.2,8 C63.2,7.2 63.1,6.4 62.8,5.8 C62.6,4.7 62.3,4.2 61.9,3.7 Z M60.4,7.6 C60.4,8 60.3,8.4 60.2,8.7 C60.1,9 59.9,9.3 59.7,9.6 C59.5,9.8 59.2,10 58.9,10.2 C58.6,10.3 58.3,10.4 58,10.4 C57.7,10.4 57.3,10.3 57.1,10.2 C56.8,10.1 56.5,9.9 56.3,9.6 C56.1,9.4 55.9,9.1 55.8,8.7 C55.7,8.4 55.6,8 55.6,7.6 C55.6,7.2 55.7,6.8 55.8,6.5 C55.9,6.2 56.1,5.9 56.3,5.6 C56.5,5.4 56.8,5.2 57.1,5 C57.4,4.9 57.7,4.8 58,4.8 C58.3,4.8 58.7,4.9 58.9,5 C59.2,5.1 59.5,5.3 59.7,5.6 C59.9,5.8 60.1,6.1 60.2,6.5 C60.4,6.8 60.4,7.2 60.4,7.6 Z M71.7,8.4 C71.5,8.1 71.3,7.8 71,7.6 C70.7,7.4 70.4,7.2 70,7 C69.6,6.8 69.3,6.7 68.9,6.6 C68.6,6.5 68.4,6.4 68.1,6.3 C67.9,6.2 67.6,6.1 67.5,6 C67.3,5.9 67.2,5.8 67.1,5.7 C67,5.6 66.9,5.5 66.9,5.3 C66.9,5.1 67,4.9 67.2,4.8 C67.4,4.7 67.6,4.6 68,4.6 C68.4,4.6 68.8,4.7 69.3,4.9 C69.8,5.1 70.3,5.3 70.8,5.6 L71.9,3.6 C71.4,3.2 70.7,3 70.1,2.7 C69.4,2.5 68.8,2.4 68.2,2.4 C67.7,2.4 67.2,2.5 66.8,2.6 C66.4,2.7 66,2.9 65.6,3.2 C65.3,3.5 65,3.8 64.8,4.2 C64.6,4.6 64.5,5 64.5,5.6 C64.5,6.1 64.6,6.5 64.8,6.8 C65,7.1 65.2,7.4 65.5,7.7 C65.8,7.9 66.1,8.1 66.5,8.3 C66.9,8.4 67.2,8.6 67.6,8.7 C67.9,8.8 68.1,8.9 68.4,8.9 C68.6,9 68.9,9.1 69.1,9.1 C69.3,9.1 69.4,9.3 69.6,9.4 C69.7,9.5 69.8,9.6 69.8,9.8 C69.8,10 69.7,10.2 69.5,10.3 C69.3,10.4 69,10.5 68.6,10.5 C68.1,10.5 67.6,10.4 67.1,10.2 C66.6,10 66,9.7 65.5,9.3 L64.3,11.2 C65,11.7 65.7,12.1 66.4,12.4 C67.1,12.6 67.9,12.8 68.6,12.8 C69.1,12.8 69.6,12.7 70.1,12.6 C70.6,12.5 71,12.3 71.3,12 C71.6,11.7 71.9,11.4 72.1,11 C72.3,10.6 72.4,10.1 72.4,9.5 C72,9.1 71.9,8.7 71.7,8.4 Z" id="Fill-1"></path><path d="M84.5,12.4 C85.1,12.1 85.7,11.6 86.2,11.1 L84.5,9.4 C84.2,9.7 83.8,10 83.4,10.2 C83,10.4 82.6,10.5 82.2,10.5 C81.8,10.5 81.5,10.4 81.2,10.3 C80.9,10.2 80.6,10 80.4,9.7 C80.2,9.5 80,9.2 79.9,8.8 C79.8,8.5 79.7,8.1 79.7,7.7 C79.7,7.3 79.8,7 79.9,6.6 C80,6.3 80.2,6 80.4,5.7 C80.6,5.5 80.9,5.3 81.2,5.1 C81.5,5 81.8,4.9 82.2,4.9 C82.7,4.9 83.1,5 83.5,5.2 C83.8,5.4 84.2,5.7 84.5,6 L86.2,4.1 C85.7,3.6 85.2,3.2 84.6,2.9 C84,2.6 83.2,2.4 82.2,2.4 C81.4,2.4 80.7,2.5 80.1,2.8 C79.5,3.1 78.9,3.5 78.4,3.9 C77.9,4.4 77.6,4.9 77.3,5.6 C77,6.2 76.9,6.9 76.9,7.6 C76.9,8.3 77,9 77.3,9.6 C77.6,10.2 77.9,10.8 78.4,11.3 C78.9,11.8 79.4,12.1 80.1,12.4 C80.7,12.7 81.4,12.8 82.2,12.8 C83.1,13 83.9,12.8 84.5,12.4" id="Fill-2"></path><path d="M90.8,10.3 C90.5,10.2 90.2,9.9 90,9.7 C89.8,9.4 89.6,9.1 89.5,8.8 C89.4,8.5 89.3,8.1 89.3,7.7 C89.3,7.3 89.4,7 89.5,6.6 C89.6,6.3 89.8,6 90,5.7 C90.2,5.5 90.5,5.3 90.8,5.1 C91.1,5 91.5,4.9 91.9,4.9 C92.3,4.9 92.6,5 93,5.1 C93.3,5.2 93.6,5.5 93.8,5.7 C94,6 94.2,6.3 94.3,6.6 C94.4,6.9 94.5,7.3 94.5,7.7 C94.5,8.1 94.4,8.4 94.3,8.8 C94.2,9.1 94,9.4 93.8,9.7 C93.6,10 93.3,10.1 93,10.3 C92.7,10.4 92.3,10.5 91.9,10.5 C91.4,10.5 91.1,10.4 90.8,10.3 Z M94,12.6 C94.7,12.3 95.2,12 95.7,11.5 C96.2,11 96.6,10.5 96.8,9.8 C97.1,9.2 97.2,8.5 97.2,7.8 C97.2,7.1 97.1,6.4 96.8,5.8 C96.5,5.2 96.1,4.6 95.7,4.1 C95.2,3.6 94.6,3.3 94,3 C93.3,2.7 92.6,2.6 91.8,2.6 C91,2.6 90.3,2.7 89.6,3 C88.9,3.3 88.4,3.7 87.9,4.1 C87.4,4.6 87,5.1 86.8,5.8 C86.5,6.4 86.4,7.1 86.4,7.8 C86.4,8.5 86.5,9.2 86.8,9.8 C87.1,10.4 87.5,11 87.9,11.5 C88.4,12 89,12.3 89.6,12.6 C90.3,12.9 91,13 91.8,13 C92.6,13 93.3,12.8 94,12.6 Z" id="Fill-3"></path><path d="M98.4,2.7 L101.3,2.7 L101.3,4.1 C101.5,3.9 101.6,3.7 101.8,3.5 C102,3.3 102.2,3.1 102.5,3 C102.7,2.8 103,2.7 103.3,2.6 C103.6,2.5 103.9,2.5 104.3,2.5 C105,2.5 105.5,2.6 106,2.9 C106.5,3.2 106.9,3.6 107.1,4.1 C107.5,3.6 108,3.2 108.6,2.9 C109.1,2.6 109.8,2.5 110.4,2.5 C111.5,2.5 112.3,2.8 112.9,3.4 C113.5,4 113.8,4.9 113.8,6.2 L113.8,12.7 L111,12.7 L111,7.1 C111,6.4 110.9,5.9 110.6,5.6 C110.3,5.3 109.9,5.1 109.4,5.1 C108.9,5.1 108.4,5.3 108.1,5.6 C107.8,5.9 107.6,6.5 107.6,7.1 L107.6,12.7 L104.7,12.7 L104.7,7.1 C104.7,6.4 104.6,5.9 104.3,5.6 C104,5.3 103.6,5.1 103.1,5.1 C102.6,5.1 102.1,5.3 101.8,5.6 C101.5,5.9 101.3,6.5 101.3,7.1 L101.3,12.7 L98.4,12.7 L98.4,2.7 Z" id="m"></path><path d="M76,11.1 C76,11.9 75.3,12.6 74.5,12.6 C73.7,12.6 73,11.9 73,11.1 C73,10.3 73.7,9.6 74.5,9.6 C75.4,9.6 76,10.3 76,11.1" id="Fill-4"></path></g></g></svg>